<?xml version="1.0" standalone="no"?>
<!DOCTYPE svg PUBLIC "-//W3C//DTD SVG 1.1//EN" "http://www.w3.org/Graphics/SVG/1.1/DTD/svg11.dtd" >
<svg>
<metadata>
Created by FontForge 20120731 at Tue Jul 23 09:27:33 2019
 By www
URW Software, Copyright 1993 by URW
</metadata>
<defs>
<font id="NimbusSanT-ReguCond" horiz-adv-x="1024" >
  <font-face 
    font-family="NimbusSanTCon"
    font-weight="400"
    font-stretch="normal"
    units-per-em="2048"
    panose-1="2 11 5 6 2 2 2 4 2 4"
    ascent="1652"
    descent="-396"
    x-height="1010"
    cap-height="1365"
    bbox="-355 -512 2007 1789"
    underline-thickness="135"
    underline-position="-135"
    unicode-range="U+0020-F002"
  />
<missing-glyph horiz-adv-x="382" 
d="M38 0v1365h306v-1365h-306zM306 38v1289h-230v-1289h230z" />
    <glyph glyph-name=".notdef" horiz-adv-x="382" 
d="M38 0v1365h306v-1365h-306zM306 38v1289h-230v-1289h230z" />
    <glyph glyph-name="glyph1" horiz-adv-x="0" 
 />
    <glyph glyph-name="glyph2" horiz-adv-x="382" 
 />
    <glyph glyph-name="space" unicode=" " horiz-adv-x="382" 
 />
    <glyph glyph-name="exclam" unicode="!" horiz-adv-x="396" 
d="M238 328h-81l-43 618v406h167v-406zM286 191v-191h-177v191h177z" />
    <glyph glyph-name="quotedbl" unicode="&#x22;" horiz-adv-x="580" 
d="M223 874h-114l-23 491h161zM471 874h-114l-24 491h161z" />
    <glyph glyph-name="numbersign" unicode="#" horiz-adv-x="915" 
d="M778 529l-13 -103h-131l-65 -426h-124l68 426h-187l-66 -426h-117l67 426h-134l14 103h133l50 306h-134l14 103h132l62 400h119l-63 -400h188l62 400h121l-64 -400h129l-13 -103h-128l-48 -306h128zM575 835h-186l-46 -306h187z" />
    <glyph glyph-name="dollar" unicode="$" horiz-adv-x="915" 
d="M499 1229v-473l94 -33q151 -55 208 -136q63 -88 63 -224q0 -239 -183 -335q-73 -38 -182 -47v-172h-87v172q-365 29 -365 410q0 10 1 31h162q-1 -32 -1 -48q0 -169 95 -230q40 -26 108 -35v511l-50 18q-127 46 -183 93q-105 88 -105 261q0 229 180 321q71 37 158 44v172
h87v-172q328 -32 329 -378h-155q-4 222 -174 250zM412 1231q-192 -29 -192 -216q0 -83 40 -136q42 -55 144 -89l8 -2v443zM499 108q208 24 208 242q0 95 -37 143q-38 48 -160 92l-11 4v-481z" />
    <glyph glyph-name="percent" unicode="%" horiz-adv-x="1461" 
d="M314 1379q136 0 196 -130q43 -92 43 -308q0 -236 -53 -328q-63 -111 -189 -111q-140 0 -200 130q-43 92 -43 310q0 234 53 326q63 111 193 111zM310 1281q-72 0 -100 -91q-22 -68 -22 -249q0 -197 27 -264q30 -77 96 -77q72 0 102 91q21 67 21 252q0 196 -26 262
q-31 76 -98 76zM1149 1352l-733 -1352h-106l734 1352h105zM1153 857q136 0 197 -130q42 -91 42 -308q0 -236 -52 -328q-64 -111 -190 -111q-139 0 -199 130q-43 92 -43 310q0 234 53 326q63 111 192 111zM1149 757q-71 0 -99 -90q-22 -69 -22 -248q0 -196 27 -263
q30 -76 96 -76q72 0 101 90q21 68 21 251q0 194 -26 260q-31 76 -98 76z" />
    <glyph glyph-name="ampersand" unicode="&#x26;" horiz-adv-x="1100" 
d="M849 624h141q-2 -92 -26 -191q-27 -103 -73 -182l175 -251h-165l-95 132q-51 -52 -96 -82q-102 -70 -231 -70q-171 0 -279 112q-110 113 -110 276q0 170 126 292q47 45 136 113q-42 58 -67 103q-61 108 -61 208q0 126 89 202q77 65 189 65q115 0 187 -71q74 -73 74 -193
q0 -131 -90 -229q-41 -45 -128 -115l261 -374q39 85 43 255zM472 848q61 48 93 86q57 68 57 147q0 65 -35 104q-35 40 -93 40q-55 0 -90 -35q-40 -39 -40 -99q0 -64 41 -139q15 -26 67 -104zM427 668q-66 -48 -106 -87q-84 -84 -84 -199q0 -106 65 -185q75 -90 196 -90
q134 0 233 132z" />
    <glyph glyph-name="quotesingle" unicode="'" horiz-adv-x="333" 
d="M223 874h-114l-23 491h161z" />
    <glyph glyph-name="parenleft" unicode="(" horiz-adv-x="561" 
d="M495 -328h-109q-106 162 -153 259q-131 273 -131 601q0 315 131 602q49 109 126 231h109q-209 -327 -209 -826q0 -335 89 -578q49 -135 147 -289z" />
    <glyph glyph-name="parenright" unicode=")" horiz-adv-x="561" 
d="M66 1365h109q106 -162 153 -259q131 -272 131 -601q0 -315 -130 -602q-50 -109 -127 -231h-109q209 327 209 826q0 335 -89 578q-49 136 -147 289z" />
    <glyph glyph-name="asterisk" unicode="*" horiz-adv-x="748" 
d="M426 1365l-7 -219l207 74l32 -99l-211 -61l135 -174l-85 -61l-123 181l-123 -181l-85 61l135 174l-211 61l32 99l207 -74l-7 219h104z" />
    <glyph glyph-name="plus" unicode="+" horiz-adv-x="915" 
d="M831 740v-109h-318v-329h-112v329h-318v109h318v324h112v-324h318z" />
    <glyph glyph-name="comma" unicode="," horiz-adv-x="393" 
d="M102 198h188v-184q1 -245 -188 -296v100q88 40 84 182h-84v198z" />
    <glyph glyph-name="hyphen" unicode="-" horiz-adv-x="382" 
d="M382 605v-143h-382v143h382z" />
    <glyph glyph-name="period" unicode="." horiz-adv-x="393" 
d="M290 198v-198h-188v198h188z" />
    <glyph glyph-name="slash" unicode="/" horiz-adv-x="618" 
d="M553 1365l-454 -1693h-121l455 1693h120z" />
    <glyph glyph-name="zero" unicode="0" horiz-adv-x="915" 
d="M463 1358q120 0 210 -76q98 -83 133 -266q25 -131 25 -347q0 -368 -81 -515q-96 -174 -292 -174q-216 0 -308 205q-66 144 -66 486q0 367 81 513q96 174 298 174zM455 1231q-125 0 -176 -150q-38 -112 -38 -412q0 -324 47 -436q54 -126 170 -126q126 0 178 150
q38 111 38 415q0 323 -47 433q-54 126 -172 126z" />
    <glyph glyph-name="one" unicode="1" horiz-adv-x="915" 
d="M461 990h-284v117q36 -2 56 -2q153 0 213 91q35 52 38 156h134v-1352h-157v990z" />
    <glyph glyph-name="two" unicode="2" horiz-adv-x="915" 
d="M822 137v-137h-731q-1 121 25 214q34 122 120 222q46 55 179 164q141 114 183 179q52 83 52 201q0 123 -62 189q-51 53 -143 53q-150 0 -193 -144q-13 -40 -17 -182h-144q-1 33 -1 49q0 180 78 287q92 126 285 126q164 0 257 -102q97 -106 97 -284q0 -138 -62 -240
q-54 -89 -217 -223q-155 -129 -212 -204q-59 -82 -70 -168h576z" />
    <glyph glyph-name="three" unicode="3" horiz-adv-x="915" 
d="M357 643v124q35 -1 54 -1q125 0 176 61q50 60 50 177q0 227 -192 227q-123 0 -166 -97q-24 -54 -26 -178h-147q5 168 48 248q84 154 298 154q158 0 248 -88q94 -90 94 -254q0 -131 -67 -215q-44 -55 -133 -88q105 -20 157 -67q91 -83 91 -251q0 -178 -91 -292
q-100 -123 -293 -123q-247 0 -335 195q-40 89 -40 224h151q-1 -20 -1 -31q0 -116 57 -189q56 -72 166 -72q116 0 175 85q54 79 54 195q0 145 -83 213q-56 45 -177 45q-22 0 -68 -2z" />
    <glyph glyph-name="four" unicode="4" horiz-adv-x="915" 
d="M578 341h-496v137l491 874h152v-874h131v-137h-131v-341h-147v341zM578 478v639l-359 -639h359z" />
    <glyph glyph-name="five" unicode="5" horiz-adv-x="915" 
d="M319 1201l-48 -389q94 77 209 77q168 0 261 -125q86 -115 86 -307t-84 -321q-101 -156 -302 -156q-212 0 -307 165q-48 83 -49 217h151q0 -62 13 -108q22 -78 82 -117q47 -30 108 -30q123 0 180 107q51 95 51 241q0 143 -57 226q-57 81 -173 81q-146 0 -183 -129l-143 13
l79 692h588v-137h-462z" />
    <glyph glyph-name="six" unicode="6" horiz-adv-x="915" 
d="M799 1035h-145q-9 90 -35 131q-44 65 -137 65q-148 0 -207 -178q-40 -120 -46 -343q110 156 268 156q157 0 249 -116t92 -309q0 -191 -89 -319q-98 -142 -281 -142q-227 0 -322 216q-62 142 -62 459q0 268 44 411q90 292 353 292q191 0 272 -144q38 -67 46 -179zM464 747
q-101 0 -158 -86q-60 -89 -60 -235q0 -147 60 -241q54 -86 158 -86q103 0 157 86q60 94 60 236q0 148 -59 241q-55 85 -158 85z" />
    <glyph glyph-name="seven" unicode="7" horiz-adv-x="915" 
d="M835 1338v-137q-177 -256 -289 -529q-143 -353 -153 -672h-174q55 593 459 1201h-599v137h756z" />
    <glyph glyph-name="eight" unicode="8" horiz-adv-x="915" 
d="M616 737q211 -89 211 -354q0 -167 -80 -272q-98 -131 -290 -131t-290 131q-80 105 -80 272q0 265 211 354q-77 34 -114 85q-57 78 -57 198q0 151 83 241q89 97 247 97t247 -97q83 -90 83 -241q0 -120 -57 -198q-37 -51 -114 -85zM454 1231q-84 0 -132 -58
q-49 -61 -49 -163q0 -101 49 -162q48 -58 135 -58t135 58q49 61 49 162q0 102 -49 163q-48 58 -138 58zM454 664q-102 0 -157 -75q-53 -71 -53 -204q0 -131 53 -203q55 -75 160 -75t160 75q53 72 53 202q0 134 -53 205q-56 75 -163 75z" />
    <glyph glyph-name="nine" unicode="9" horiz-adv-x="915" 
d="M112 303h146q8 -91 35 -131q43 -65 136 -65q151 0 208 178q39 121 45 343q-47 -68 -88 -99q-74 -57 -178 -57q-159 0 -251 116q-91 116 -91 307t89 321q97 142 283 142q225 0 320 -215q62 -141 62 -462q0 -396 -112 -555q-102 -146 -285 -146q-192 0 -273 144
q-38 67 -46 179zM445 1239q-100 0 -154 -86q-60 -93 -60 -238q0 -144 59 -239q54 -85 155 -85q104 0 161 86q60 89 60 233q0 151 -60 243q-55 86 -161 86z" />
    <glyph glyph-name="colon" unicode=":" horiz-adv-x="393" 
d="M290 1010v-198h-188v198h188zM290 198v-198h-188v198h188z" />
    <glyph glyph-name="semicolon" unicode=";" horiz-adv-x="393" 
d="M102 198h188v-184q1 -245 -188 -296v100q88 40 84 182h-84v198zM290 1010v-198h-188v198h188z" />
    <glyph glyph-name="less" unicode="&#x3c;" 
d="M955 1168v-147l-730 -332l730 -332v-146l-887 415v128z" />
    <glyph glyph-name="equal" unicode="=" horiz-adv-x="915" 
d="M831 907v-109h-748v109h748zM831 568v-109h-748v109h748z" />
    <glyph glyph-name="greater" unicode="&#x3e;" 
d="M69 210v147l730 332l-730 333v145l887 -414v-128z" />
    <glyph glyph-name="question" unicode="?" horiz-adv-x="825" 
d="M476 335h-150q-2 30 -2 57q0 108 24 171q24 60 137 195q69 84 89 126q29 61 29 132q0 101 -50 166q-47 61 -138 61q-131 0 -176 -123q-20 -54 -20 -167h-153q4 174 52 263q90 163 299 163q156 0 249 -96q94 -97 94 -260q0 -101 -46 -189q-30 -56 -122 -163
q-75 -87 -94 -122q-25 -46 -25 -128q0 -28 3 -86zM489 191v-191h-177v191h177z" />
    <glyph glyph-name="at" unicode="@" horiz-adv-x="1320" 
d="M859 1016h125l-85 -438q-13 -66 -13 -97q0 -80 44 -80q52 0 102 72q86 124 86 308q0 225 -130 363q-124 131 -305 131q-200 0 -331 -165q-142 -178 -142 -430q0 -244 129 -418q126 -171 353 -171q187 0 356 99l35 -114q-182 -101 -390 -101q-276 0 -438 200
q-169 210 -169 506q0 145 45.5 278.5t128.5 230.5q82 96 191.5 148t228.5 52q106 0 206.5 -41.5t175.5 -116.5q82 -83 127 -200t45 -247q0 -247 -140 -404q-77 -88 -172 -88q-97 0 -128 114q-36 -58 -87 -90t-107 -32q-109 0 -175 101q-63 96 -63 234q0 173 94 302
q87 119 213 119q71 0 118 -44q25 -23 52 -82zM678 911q-35 0 -71 -27t-61 -71q-46 -83 -46 -191q0 -85 30 -146q31 -66 93 -66q81 0 131 111q39 85 39 202q0 84 -29 134q-30 54 -86 54z" />
    <glyph glyph-name="A" unicode="A" horiz-adv-x="1028" 
d="M731 392h-447l-108 -392h-165l394 1365h206l406 -1365h-175zM693 529l-119 421q-33 122 -67 261q-29 -120 -68 -261l-117 -421h371z" />
    <glyph glyph-name="B" unicode="B" horiz-adv-x="1010" 
d="M127 0v1365h369q143 0 208 -26q96 -38 143 -136q39 -80 39 -186q0 -123 -52 -197q-36 -52 -115 -89q208 -67 208 -332q0 -199 -110 -304q-65 -63 -152 -80q-78 -15 -179 -15h-359zM288 777h206q117 0 169 51q62 61 62 178t-62 178q-52 51 -173 51h-202v-458zM288 130h212
q139 0 199 60q67 68 67 202t-67 202q-60 60 -199 60h-212v-524z" />
    <glyph glyph-name="C" unicode="C" horiz-adv-x="985" 
d="M912 964h-156q-17 296 -236 296q-156 0 -222 -165q-48 -120 -48 -360q0 -323 52 -459q64 -171 219 -171q242 0 248 391h158q-22 -521 -409 -521q-236 0 -340 200q-89 172 -89 522q0 396 125 552q114 141 314 141q236 0 334 -207q44 -92 50 -219z" />
    <glyph glyph-name="D" unicode="D" horiz-adv-x="1051" 
d="M127 0v1365h338q181 0 263 -36q234 -104 234 -640q0 -424 -158 -585q-67 -68 -165 -90q-65 -14 -169 -14h-343zM288 130h142q142 0 201 27q90 41 131 192q39 143 39 337q0 191 -36 330q-40 152 -126 193q-54 26 -162 26h-189v-1105z" />
    <glyph glyph-name="E" unicode="E" horiz-adv-x="958" 
d="M859 1365v-143h-571v-438h548v-137h-548v-504h590v-143h-751v1365h732z" />
    <glyph glyph-name="F" unicode="F" horiz-adv-x="868" 
d="M824 1365v-143h-557v-464h518v-143h-518v-615h-161v1365h718z" />
    <glyph glyph-name="G" unicode="G" horiz-adv-x="1039" 
d="M501 707h438v-707h-120q-7 65 -19 126q-48 -63 -88 -93q-79 -58 -193 -58q-227 0 -338 199q-91 162 -91 524q0 377 109 531q115 161 341 161q237 0 334 -178q51 -95 57 -251h-161q-8 299 -236 299q-162 0 -232 -163q-51 -120 -51 -407q0 -290 59 -424q67 -155 223 -155
q170 0 227 184q27 88 29 275h-288v137z" />
    <glyph glyph-name="H" unicode="H" horiz-adv-x="1064" 
d="M776 663h-488v-663h-161v1365h161v-565h488v565h161v-1365h-161v663z" />
    <glyph glyph-name="I" unicode="I" horiz-adv-x="415" 
d="M288 1365v-1365h-161v1365h161z" />
    <glyph glyph-name="J" unicode="J" horiz-adv-x="777" 
d="M489 1365h161v-954q0 -171 -17 -233q-30 -110 -124 -161q-78 -42 -180 -42q-316 0 -316 380q0 26 3 82h153q0 -164 14 -212q31 -113 148 -113q90 0 127 64q31 54 31 193v996z" />
    <glyph glyph-name="K" unicode="K" horiz-adv-x="1031" 
d="M543 796l464 -796h-188l-379 662l-152 -196v-466h-161v1365h161v-684l498 684h194z" />
    <glyph glyph-name="L" unicode="L" horiz-adv-x="889" 
d="M288 1365v-1222h563v-143h-724v1365h161z" />
    <glyph glyph-name="M" unicode="M" horiz-adv-x="1342" 
d="M744 0h-139l-259 910q-42 146 -76 280q6 -168 7 -302v-888h-150v1365h248l230 -850q38 -139 73 -295q20 107 66 286l226 859h245v-1365h-150v888q2 228 7 302q-9 -37 -30 -121q-9 -36 -49 -181z" />
    <glyph glyph-name="N" unicode="N" horiz-adv-x="1064" 
d="M937 0h-206l-377 929q-14 33 -50 130q-25 67 -41 118q15 -138 14 -274v-903h-150v1365h210l358 -896q72 -185 101 -270q-8 136 -9 301v865h150v-1365z" />
    <glyph glyph-name="O" unicode="O" horiz-adv-x="1044" 
d="M529 1390q146 0 250 -85q109 -89 148 -280q29 -142 29 -342q0 -359 -88 -515q-109 -193 -345 -193q-258 0 -362 224q-72 155 -72 485q0 358 88 513q109 193 352 193zM519 1253q-155 0 -217 -155q-52 -129 -52 -415q0 -313 63 -440q64 -131 209 -131q159 0 221 155
q52 129 52 418q0 311 -62 437q-65 131 -214 131z" />
    <glyph glyph-name="P" unicode="P" horiz-adv-x="931" 
d="M288 574v-574h-161v1365h353q177 0 262 -67q130 -103 130 -327q0 -209 -117 -316q-88 -81 -251 -81h-216zM288 711h189q113 0 166 51q68 66 68 205q0 138 -68 204q-53 51 -166 51h-189v-511z" />
    <glyph glyph-name="Q" unicode="Q" horiz-adv-x="1045" 
d="M868 168l144 -117l-84 -104l-144 117q-107 -89 -262 -89q-257 0 -361 224q-72 155 -72 484q0 358 88 514q109 193 346 193q256 0 361 -224q72 -154 72 -484q0 -352 -88 -514zM744 268q51 132 51 412q0 315 -63 442q-64 131 -210 131q-158 0 -220 -155q-52 -128 -52 -416
q0 -312 63 -439q64 -131 209 -131q83 0 146 46l-135 109l84 104z" />
    <glyph glyph-name="R" unicode="R" horiz-adv-x="1023" 
d="M288 618v-618h-161v1365h383q104 0 171.5 -20.5t112.5 -66.5q94 -94 94 -267q0 -142 -70 -231q-49 -61 -147 -95q114 -25 160 -86q54 -71 54 -221v-151q0 -85 21 -145q12 -37 49 -82h-190q-36 96 -40 227v128q-1 146 -48 201q-52 60 -209 62h-180zM288 748h211
q228 0 228 244q0 243 -228 243h-211v-487z" />
    <glyph glyph-name="S" unicode="S" horiz-adv-x="982" 
d="M868 999h-159q-4 110 -37 165q-57 96 -193 96q-105 0 -167 -56q-66 -59 -66 -167q0 -85 41 -140q39 -52 149 -92l191 -69q114 -40 166 -85q112 -97 112 -283q0 -185 -108 -287q-112 -106 -312 -106q-321 0 -395 257q-22 77 -22 197h167q-2 -36 -2 -56q0 -268 255 -268
q256 0 256 251q0 96 -38 145q-39 50 -164 95l-152 54q-128 46 -186 95q-108 91 -108 267q0 181 111 281q107 97 280 97q138 0 234 -61q142 -91 147 -330z" />
    <glyph glyph-name="T" unicode="T" horiz-adv-x="871" 
d="M516 1228v-1228h-161v1228h-341v137h844v-137h-342z" />
    <glyph glyph-name="U" unicode="U" horiz-adv-x="1041" 
d="M752 1365h161v-915q0 -162 -30 -245q-44 -117 -147 -176q-94 -54 -216 -54q-101 0 -185 38.5t-133 106.5q-48 68 -61 147q-14 82 -14 183v915h161v-929q0 -140 22 -196q51 -128 210 -128q116 0 176 71q37 44 46 100q10 64 10 153v929z" />
    <glyph glyph-name="V" unicode="V" horiz-adv-x="999" 
d="M595 0h-198l-383 1365h180l239 -909q41 -155 64 -283q33 139 71 283l243 909h175z" />
    <glyph glyph-name="W" unicode="W" horiz-adv-x="1450" 
d="M505 0h-195l-290 1365h167l170 -880q37 -181 50 -321q14 129 53 324l172 877h187l182 -851q30 -147 56 -350q21 206 47 350l158 851h167l-288 -1365h-177l-176 809q-34 157 -64 344q-14 -119 -59 -347z" />
    <glyph glyph-name="X" unicode="X" horiz-adv-x="992" 
d="M585 699l394 -699h-194l-289 558l-296 -558h-186l387 699l-368 666h185l278 -520l275 520h183z" />
    <glyph glyph-name="Y" unicode="Y" horiz-adv-x="920" 
d="M532 547v-547h-161v547l-371 818h181l191 -451q49 -114 86 -208q33 85 86 208l196 451h180z" />
    <glyph glyph-name="Z" unicode="Z" horiz-adv-x="948" 
d="M873 1365v-140l-641 -1082h659v-143h-851v115l646 1107h-578v143h765z" />
    <glyph glyph-name="bracketleft" unicode="[" horiz-adv-x="534" 
d="M448 1256h-178v-1475h178v-109h-325v1693h325v-109z" />
    <glyph glyph-name="backslash" unicode="\" horiz-adv-x="618" 
d="M66 1365h121l454 -1693h-120z" />
    <glyph glyph-name="bracketright" unicode="]" horiz-adv-x="534" 
d="M86 1365h325v-1693h-325v109h179v1475h-179v109z" />
    <glyph glyph-name="asciicircum" unicode="^" 
d="M212 749h-159l363 620h193l363 -620h-160l-301 503z" />
    <glyph glyph-name="underscore" unicode="_" 
d="M0 -135h1024v-135h-1024v135z" />
    <glyph glyph-name="grave" unicode="`" 
d="M455 1365l119 -259h-119l-223 259h223z" />
    <glyph glyph-name="a" unicode="a" horiz-adv-x="860" 
d="M238 732h-138q0 138 61 210q75 88 255 88q157 0 236 -72q44 -40 58 -97q13 -55 13 -129v-474q0 -112 11 -134q14 -27 53 -27q11 0 26 3v-100q-34 -7 -61 -7q-138 0 -166 134q-95 -147 -255 -147q-118 0 -191 80q-70 76 -70 200q0 152 100 223q45 33 106 51q53 16 128 34
q125 31 153 57q32 29 32 104q0 84 -32 127q-40 54 -144 54q-136 0 -165 -87q-10 -28 -10 -91zM586 523q-52 -25 -144 -52q-129 -37 -163 -62q-59 -44 -59 -138q0 -171 148 -171q107 0 170 88q32 44 40 93q8 52 8 129v113z" />
    <glyph glyph-name="b" unicode="b" horiz-adv-x="864" 
d="M111 1365h147v-444q95 110 221 110q154 0 229 -126q84 -140 84 -394q0 -248 -83 -391q-78 -134 -234 -134q-86 0 -150 45q-33 24 -77 82v-113h-137v1365zM442 911q-50 0 -90 -29t-62 -80q-42 -100 -42 -294q0 -193 42 -293q46 -109 155 -109t155 109q42 100 42 289
q0 201 -42 298q-48 109 -158 109z" />
    <glyph glyph-name="c" unicode="c" horiz-adv-x="788" 
d="M741 694h-140q-4 217 -174 217q-112 0 -156 -87q-49 -95 -49 -309q0 -232 51 -330q44 -85 153 -85q124 0 163 119q16 52 18 143l142 -3q0 -136 -46 -223q-82 -156 -279 -156q-88 0 -159 35.5t-111 100.5q-82 131 -82 402q0 250 80 376q87 137 277 137q193 0 271 -149
q38 -72 41 -188z" />
    <glyph glyph-name="d" unicode="d" horiz-adv-x="863" 
d="M752 1365v-1365h-137v119q-80 -133 -222 -133q-151 0 -228 118q-92 140 -92 410q0 252 78 384q42 70 119 106q57 26 123 26q122 0 212 -111v446h147zM416 910q-48 0 -87.5 -27.5t-61.5 -73.5q-44 -99 -44 -301t44 -300q46 -102 152 -102t152 102q44 97 44 295
q0 211 -44 306q-47 101 -155 101z" />
    <glyph glyph-name="e" unicode="e" horiz-adv-x="808" 
d="M734 497h-515q0 -163 28 -253q45 -144 172 -144q163 0 174 237h136q-5 -131 -59 -220q-83 -137 -255 -137q-171 0 -254 122q-89 131 -89 417q0 244 77 371q40 66 108 103t151 37q179 0 261 -152q67 -123 67 -308q0 -24 -2 -73zM586 610q0 300 -179 300q-181 0 -185 -300
h364z" />
    <glyph glyph-name="f" unicode="f" horiz-adv-x="474" 
d="M166 897h-135v113h135v115q0 80 17 126t55 74q56 39 171 40h52v-127h-32q-65 -1 -89 -21q-26 -23 -27 -99v-108h148v-113h-148v-897h-147v897z" />
    <glyph glyph-name="g" unicode="g" horiz-adv-x="860" 
d="M612 1010h137v-914q0 -154 -18 -216q-60 -208 -328 -208q-178 0 -253 92q-40 49 -52 142h141q21 -125 166 -125q106 0 156 54q51 55 51 212v49q-93 -110 -221 -110q-69 0 -129.5 27.5t-97.5 76.5q-93 122 -93 404q0 223 44 338q76 199 270 199q86 0 147 -43
q39 -28 80 -90v112zM414 911q-45 0 -85.5 -25.5t-60.5 -66.5q-47 -95 -47 -311q0 -214 47 -310q23 -47 72 -73q36 -19 77 -19q46 0 87 25t61 67q47 96 47 305q0 223 -47 316q-45 92 -151 92z" />
    <glyph glyph-name="h" unicode="h" horiz-adv-x="856" 
d="M111 1365h147v-471q42 57 78 83q68 47 160 47q123 0 191 -82q39 -47 48 -101q11 -60 11 -158v-683h-147v653q0 119 -11 154q-29 97 -135 97q-99 0 -152 -76q-27 -39 -35 -84q-8 -51 -8 -118v-626h-147v1365z" />
    <glyph glyph-name="i" unicode="i" horiz-adv-x="369" 
d="M258 1010v-1010h-147v1010h147zM258 1365v-184h-147v184h147z" />
    <glyph glyph-name="j" unicode="j" horiz-adv-x="390" 
d="M132 1010h147v-1024q0 -103 -11.5 -158.5t-40.5 -90.5q-33 -41 -92 -54q-47 -11 -112 -11h-53v123h50q67 1 90 37q21 33 22 148v1030zM279 1365v-184h-147v184h147z" />
    <glyph glyph-name="k" unicode="k" horiz-adv-x="857" 
d="M485 624l365 -624h-175l-284 514l-133 -153v-361h-147v1365h147v-823l388 468h173z" />
    <glyph glyph-name="l" unicode="l" horiz-adv-x="369" 
d="M258 1365v-1365h-147v1365h147z" />
    <glyph glyph-name="m" unicode="m" horiz-adv-x="1340" 
d="M111 1010h137v-113q48 55 87 81q70 46 165 46q104 0 166 -54q34 -29 63 -87q46 61 85 90q72 51 170 51q125 0 189 -82q37 -49 46 -101q10 -60 10 -158v-683h-147v672q0 107 -10 142q-26 90 -132 90q-84 0 -143 -62q-30 -33 -39 -64q-11 -38 -11 -106v-672h-147v672
q0 126 -26 171q-35 61 -123 61q-85 0 -141 -56q-35 -36 -44 -74q-8 -34 -8 -102v-672h-147v1010z" />
    <glyph glyph-name="n" unicode="n" horiz-adv-x="856" 
d="M111 1010h137v-116q42 56 81 83q71 47 166 47q124 0 192 -82q39 -48 48 -101q11 -60 11 -158v-683h-147v653q0 119 -11 154q-29 97 -135 97q-99 0 -152 -76q-27 -39 -35 -84q-8 -51 -8 -118v-626h-147v1010z" />
    <glyph glyph-name="o" unicode="o" horiz-adv-x="833" 
d="M421 1030q159 0 244 -120q95 -135 95 -405q0 -525 -344 -525q-164 0 -249 120q-95 137 -95 401q0 529 349 529zM413 910q-106 0 -150 -105q-41 -99 -41 -301q0 -200 41 -299q44 -105 153 -105t153 105q41 99 41 295q0 209 -41 305q-45 105 -156 105z" />
    <glyph glyph-name="p" unicode="p" horiz-adv-x="862" 
d="M111 1010h137v-106q89 126 225 126q150 0 226 -117q90 -139 90 -404q0 -262 -91 -403q-78 -120 -228 -120q-124 0 -212 109v-423h-147v1338zM440 910q-47 0 -87 -27.5t-61 -74.5q-44 -101 -44 -301q0 -197 44 -299q45 -102 151 -102q50 0 90.5 27.5t61.5 74.5
q44 103 44 296q0 205 -44 304q-46 102 -155 102z" />
    <glyph glyph-name="q" unicode="q" horiz-adv-x="871" 
d="M624 1010h136v-1338h-147v421q-96 -107 -221 -107q-145 0 -223 110q-97 137 -97 409q0 271 91 408q37 55 98.5 86.5t133.5 31.5q87 0 150 -45q36 -26 79 -86v110zM419 911q-100 0 -148.5 -99t-48.5 -304q0 -195 46 -300q21 -48 62 -75t93 -27q101 0 151 99t50 300
q0 200 -47 304q-45 102 -158 102z" />
    <glyph glyph-name="r" unicode="r" horiz-adv-x="542" 
d="M111 1010h147v-123q53 81 117 113q53 25 147 24v-155q-29 5 -53 5q-105 0 -154 -55q-57 -62 -57 -223v-596h-147v1010z" />
    <glyph glyph-name="s" unicode="s" horiz-adv-x="755" 
d="M687 740h-143q0 81 -25 115q-39 55 -132 55q-165 0 -165 -151q0 -59 29 -90q25 -26 117 -58l132 -47q124 -44 171 -122q36 -59 36 -152q0 -151 -84 -230q-87 -80 -240 -80q-160 0 -246 80q-75 70 -77 215v32h143q-1 -94 27 -137q45 -70 155 -70q97 0 145 54q40 44 40 116
q0 70 -36 108q-24 25 -113 58l-119 43q-116 42 -162 94q-55 63 -55 171q0 146 91 221q79 65 216 65q191 0 259 -126q29 -52 36 -164z" />
    <glyph glyph-name="t" unicode="t" horiz-adv-x="485" 
d="M461 1010v-113h-160v-603q0 -95 9 -120q20 -55 94 -55q14 0 66 4v-123q-48 -4 -95 -4q-74 0 -116.5 15t-67.5 49q-27 39 -32 93q-5 52 -5 127v617h-135v113h135v267h147v-267h160z" />
    <glyph glyph-name="u" unicode="u" horiz-adv-x="856" 
d="M746 1010v-1010h-137v116q-42 -56 -81 -83q-71 -47 -166 -47q-124 0 -192 82q-39 48 -48 101q-11 60 -11 158v683h147v-653q0 -119 11 -154q29 -97 135 -97q99 0 152 76q27 39 35 84q8 51 8 118v626h147z" />
    <glyph glyph-name="v" unicode="v" horiz-adv-x="750" 
d="M446 0h-152l-301 1010h164l154 -567q44 -167 64 -274q22 106 68 274l164 567h150z" />
    <glyph glyph-name="w" unicode="w" horiz-adv-x="1167" 
d="M412 0h-163l-249 1010h159l121 -555q32 -156 54 -288q6 40 17 125q10 73 27 163l109 555h173l112 -555q24 -119 46 -288q23 124 62 284l136 559h151l-272 -1010h-153l-123 573q-28 135 -46 264q-21 -143 -45 -264z" />
    <glyph glyph-name="x" unicode="x" horiz-adv-x="798" 
d="M475 529l329 -529h-175l-238 403l-227 -403h-171l317 525l-300 485h173l213 -357l199 357h171z" />
    <glyph glyph-name="y" unicode="y" horiz-adv-x="790" 
d="M638 1010h159l-341 -1070q-48 -149 -101 -203q-62 -65 -182 -65q-62 0 -106 13v122q49 -15 92 -15q116 0 151 161l10 47l-327 1010h165l162 -550q44 -152 81 -299q53 217 76 299z" />
    <glyph glyph-name="z" unicode="z" horiz-adv-x="683" 
d="M633 1010v-141l-436 -739h462v-130h-636v119l449 761h-403v130h564z" />
    <glyph glyph-name="braceleft" unicode="{" horiz-adv-x="668" 
d="M221 519q68 -38 97 -107q19 -46 19 -136v-293q3 -104 14 -123q25 -51 67 -64q43 -15 89 -15h23v-109h-35q-168 -2 -231 64q-52 50 -66 131q-8 47 -8 107v297q0 103 -33 143q-34 39 -83 50v109q53 13 85 55q29 37 31 135v321q-1 155 76 221q70 64 230 60h34v-109h-23
q-51 0 -97 -19q-43 -15 -63 -72q-9 -27 -10 -105v-306q0 -109 -32 -161q-26 -43 -84 -74z" />
    <glyph glyph-name="bar" unicode="|" 
d="M439 1365h147v-1706h-147v1706z" />
    <glyph glyph-name="braceright" unicode="}" horiz-adv-x="668" 
d="M447 519q-68 37 -97 106q-19 46 -19 136v293q-3 104 -14 123q-25 51 -67 64q-43 15 -89 15h-23v109h35q168 2 231 -64q52 -50 66 -131q8 -47 8 -107v-297q0 -103 33 -143q34 -39 83 -50v-109q-53 -13 -85 -55q-29 -37 -31 -135v-321q1 -156 -76 -221q-69 -64 -230 -60
h-34v109h23q51 0 97 19q43 15 63 72q9 29 10 105v306q0 110 32 161q26 43 84 75z" />
    <glyph glyph-name="asciitilde" unicode="~" horiz-adv-x="1365" 
d="M277 1193l-87 57q43 85 75 128q81 106 205 106q77 0 230 -71q103 -47 135 -56q34 -9 64 -9q72 0 120 49q29 30 66 91l89 -52q-55 -110 -111 -159q-82 -70 -182 -70q-35 0 -90 17q-57 18 -197 82q-83 38 -137 38q-99 0 -180 -151z" />
    <glyph glyph-name="Adieresis" unicode="&#xc4;" horiz-adv-x="1028" 
d="M731 392h-447l-108 -392h-165l394 1365h206l406 -1365h-175zM693 529l-119 421q-33 122 -67 261q-29 -120 -68 -261l-117 -421h371zM428 1713v-177h-150v177h150zM749 1713v-177h-150v177h150z" />
    <glyph glyph-name="Aring" unicode="&#xc5;" horiz-adv-x="1028" 
d="M731 392h-447l-108 -392h-165l394 1365h206l406 -1365h-175zM693 529l-119 421q-33 122 -67 261q-29 -120 -68 -261l-117 -421h371zM516 1789q63 0 109 -46t46 -111t-46 -111t-111 -46t-111 46t-46 111q0 66 46 111q47 46 113 46zM514 1711q-32 0 -55 -23t-23 -55t23 -56
q23 -23 56 -23q31 0 55 23q23 23 23 55q0 34 -23 56q-24 23 -56 23z" />
    <glyph glyph-name="Ccedilla" unicode="&#xc7;" horiz-adv-x="985" 
d="M556 -23l-45 -91q26 6 46 6q55 0 88 -32q37 -37 37 -94q0 -65 -49 -113q-43 -42 -116 -42q-74 0 -152 42l21 62q61 -38 115 -38q26 0 47 17q26 22 26 63q0 36 -23 58q-18 16 -46 16q-25 0 -55 -13l-27 29l60 130q-160 15 -243 108q-151 169 -151 612q0 397 125 552
q114 141 314 141q236 0 334 -207q44 -92 50 -219h-156q-17 296 -236 296q-156 0 -222 -165q-48 -120 -48 -360q0 -323 52 -459q64 -171 219 -171q242 0 248 391h158q-18 -498 -371 -519z" />
    <glyph glyph-name="Eacute" unicode="&#xc9;" horiz-adv-x="958" 
d="M859 1365v-143h-571v-438h548v-137h-548v-504h590v-143h-751v1365h732zM848 1713l-302 -170h-162l162 170h302z" />
    <glyph glyph-name="Ntilde" unicode="&#xd1;" horiz-adv-x="1064" 
d="M937 0h-206l-377 929q-14 33 -50 130q-25 67 -41 118q15 -138 14 -274v-903h-150v1365h210l358 -896q72 -185 101 -270q-8 136 -9 301v865h150v-1365zM729 1716h98q-6 -70 -36 -116q-45 -67 -133 -67q-54 0 -175 47q-44 17 -70 17q-58 0 -73 -64h-103q30 184 174 184
q50 0 178 -48q44 -17 73 -17q55 0 67 64z" />
    <glyph glyph-name="Odieresis" unicode="&#xd6;" horiz-adv-x="1044" 
d="M529 1390q146 0 250 -85q109 -89 148 -280q29 -142 29 -342q0 -359 -88 -515q-109 -193 -345 -193q-258 0 -362 224q-72 155 -72 485q0 358 88 513q109 193 352 193zM519 1253q-155 0 -217 -155q-52 -129 -52 -415q0 -313 63 -440q64 -131 209 -131q159 0 221 155
q52 129 52 418q0 311 -62 437q-65 131 -214 131zM437 1713v-177h-150v177h150zM758 1713v-177h-150v177h150z" />
    <glyph glyph-name="Udieresis" unicode="&#xdc;" horiz-adv-x="1041" 
d="M752 1365h161v-915q0 -162 -30 -245q-44 -117 -147 -176q-94 -54 -216 -54q-101 0 -185 38.5t-133 106.5q-48 68 -61 147q-14 82 -14 183v915h161v-929q0 -140 22 -196q51 -128 210 -128q116 0 176 71q37 44 46 100q10 64 10 153v929zM435 1713v-177h-150v177h150z
M756 1713v-177h-150v177h150z" />
    <glyph glyph-name="aacute" unicode="&#xe1;" horiz-adv-x="860" 
d="M238 732h-138q0 138 61 210q75 88 255 88q157 0 236 -72q44 -40 58 -97q13 -55 13 -129v-474q0 -112 11 -134q14 -27 53 -27q11 0 26 3v-100q-34 -7 -61 -7q-138 0 -166 134q-95 -147 -255 -147q-118 0 -191 80q-70 76 -70 200q0 152 100 223q45 33 106 51q53 16 128 34
q125 31 153 57q32 29 32 104q0 84 -32 127q-40 54 -144 54q-136 0 -165 -87q-10 -28 -10 -91zM586 523q-52 -25 -144 -52q-129 -37 -163 -62q-59 -44 -59 -138q0 -171 148 -171q107 0 170 88q32 44 40 93q8 52 8 129v113zM461 1365h223l-223 -259h-119z" />
    <glyph glyph-name="agrave" unicode="&#xe0;" horiz-adv-x="860" 
d="M238 732h-138q0 138 61 210q75 88 255 88q157 0 236 -72q44 -40 58 -97q13 -55 13 -129v-474q0 -112 11 -134q14 -27 53 -27q11 0 26 3v-100q-34 -7 -61 -7q-138 0 -166 134q-95 -147 -255 -147q-118 0 -191 80q-70 76 -70 200q0 152 100 223q45 33 106 51q53 16 128 34
q125 31 153 57q32 29 32 104q0 84 -32 127q-40 54 -144 54q-136 0 -165 -87q-10 -28 -10 -91zM586 523q-52 -25 -144 -52q-129 -37 -163 -62q-59 -44 -59 -138q0 -171 148 -171q107 0 170 88q32 44 40 93q8 52 8 129v113zM401 1365l119 -259h-119l-223 259h223z" />
    <glyph glyph-name="acircumflex" unicode="&#xe2;" horiz-adv-x="860" 
d="M238 732h-138q0 138 61 210q75 88 255 88q157 0 236 -72q44 -40 58 -97q13 -55 13 -129v-474q0 -112 11 -134q14 -27 53 -27q11 0 26 3v-100q-34 -7 -61 -7q-138 0 -166 134q-95 -147 -255 -147q-118 0 -191 80q-70 76 -70 200q0 152 100 223q45 33 106 51q53 16 128 34
q125 31 153 57q32 29 32 104q0 84 -32 127q-40 54 -144 54q-136 0 -165 -87q-10 -28 -10 -91zM586 523q-52 -25 -144 -52q-129 -37 -163 -62q-59 -44 -59 -138q0 -171 148 -171q107 0 170 88q32 44 40 93q8 52 8 129v113zM504 1365l189 -259h-150l-115 173l-107 -173h-153
l187 259h149z" />
    <glyph glyph-name="adieresis" unicode="&#xe4;" horiz-adv-x="860" 
d="M238 732h-138q0 138 61 210q75 88 255 88q157 0 236 -72q44 -40 58 -97q13 -55 13 -129v-474q0 -112 11 -134q14 -27 53 -27q11 0 26 3v-100q-34 -7 -61 -7q-138 0 -166 134q-95 -147 -255 -147q-118 0 -191 80q-70 76 -70 200q0 152 100 223q45 33 106 51q53 16 128 34
q125 31 153 57q32 29 32 104q0 84 -32 127q-40 54 -144 54q-136 0 -165 -87q-10 -28 -10 -91zM586 523q-52 -25 -144 -52q-129 -37 -163 -62q-59 -44 -59 -138q0 -171 148 -171q107 0 170 88q32 44 40 93q8 52 8 129v113zM341 1365v-184h-147v184h147zM666 1365v-184h-146
v184h146z" />
    <glyph glyph-name="atilde" unicode="&#xe3;" horiz-adv-x="860" 
d="M238 732h-138q0 138 61 210q75 88 255 88q157 0 236 -72q44 -40 58 -97q13 -55 13 -129v-474q0 -112 11 -134q14 -27 53 -27q11 0 26 3v-100q-34 -7 -61 -7q-138 0 -166 134q-95 -147 -255 -147q-118 0 -191 80q-70 76 -70 200q0 152 100 223q45 33 106 51q53 16 128 34
q125 31 153 57q32 29 32 104q0 84 -32 127q-40 54 -144 54q-136 0 -165 -87q-10 -28 -10 -91zM586 523q-52 -25 -144 -52q-129 -37 -163 -62q-59 -44 -59 -138q0 -171 148 -171q107 0 170 88q32 44 40 93q8 52 8 129v113zM628 1327h98q-6 -70 -36 -116q-45 -67 -133 -67
q-54 0 -175 47q-44 17 -70 17q-58 0 -73 -64h-103q30 184 174 184q50 0 178 -48q44 -17 73 -17q55 0 67 64z" />
    <glyph glyph-name="aring" unicode="&#xe5;" horiz-adv-x="860" 
d="M433 1426q63 0 109 -46t46 -111t-46 -111t-111 -46t-111 46t-46 111q0 66 46 111q47 46 113 46zM431 1348q-32 0 -55 -23t-23 -56q0 -32 23 -55t56 -23q32 0 55 23t23 55q0 34 -23 56q-24 23 -56 23zM238 732h-138q0 138 61 210q75 88 255 88q157 0 236 -72
q44 -40 58 -97q13 -55 13 -129v-474q0 -112 11 -134q14 -27 53 -27q11 0 26 3v-100q-34 -7 -61 -7q-138 0 -166 134q-95 -147 -255 -147q-118 0 -191 80q-70 76 -70 200q0 152 100 223q45 33 106 51q53 16 128 34q125 31 153 57q32 29 32 104q0 84 -32 127q-40 54 -144 54
q-136 0 -165 -87q-10 -28 -10 -91zM586 523q-52 -25 -144 -52q-129 -37 -163 -62q-59 -44 -59 -138q0 -171 148 -171q107 0 170 88q32 44 40 93q8 52 8 129v113z" />
    <glyph glyph-name="ccedilla" unicode="&#xe7;" horiz-adv-x="788" 
d="M458 -19l-47 -95q27 6 47 6q55 0 87 -32q37 -37 37 -94q0 -66 -49 -113q-43 -42 -115 -42q-74 0 -152 42l20 62q61 -38 115 -38q26 0 47 17q26 22 26 63q0 36 -23 58q-18 16 -46 16q-25 0 -55 -14l-26 30l62 134q-117 15 -188 81q-126 116 -126 456q0 250 80 376
q86 137 277 137q193 0 271 -149q38 -72 41 -188h-140q-4 217 -174 217q-112 0 -156 -87q-49 -95 -49 -309q0 -232 51 -330q44 -85 153 -85q124 0 163 119q16 52 18 143l142 -3q1 -169 -74 -267q-76 -99 -217 -111z" />
    <glyph glyph-name="eacute" unicode="&#xe9;" horiz-adv-x="808" 
d="M734 497h-515q0 -163 28 -253q45 -144 172 -144q163 0 174 237h136q-5 -131 -59 -220q-83 -137 -255 -137q-171 0 -254 122q-89 131 -89 417q0 244 77 371q40 66 108 103t151 37q179 0 261 -152q67 -123 67 -308q0 -24 -2 -73zM586 610q0 300 -179 300q-181 0 -185 -300
h364zM461 1365h223l-223 -259h-119z" />
    <glyph glyph-name="egrave" unicode="&#xe8;" horiz-adv-x="808" 
d="M734 497h-515q0 -163 28 -253q45 -144 172 -144q163 0 174 237h136q-5 -131 -59 -220q-83 -137 -255 -137q-171 0 -254 122q-89 131 -89 417q0 244 77 371q40 66 108 103t151 37q179 0 261 -152q67 -123 67 -308q0 -24 -2 -73zM586 610q0 300 -179 300q-181 0 -185 -300
h364zM347 1365l119 -259h-119l-223 259h223z" />
    <glyph glyph-name="ecircumflex" unicode="&#xea;" horiz-adv-x="808" 
d="M734 497h-515q0 -163 28 -253q45 -144 172 -144q163 0 174 237h136q-5 -131 -59 -220q-83 -137 -255 -137q-171 0 -254 122q-89 131 -89 417q0 244 77 371q40 66 108 103t151 37q179 0 261 -152q67 -123 67 -308q0 -24 -2 -73zM586 610q0 300 -179 300q-181 0 -185 -300
h364zM477 1365l189 -259h-150l-115 173l-107 -173h-153l187 259h149z" />
    <glyph glyph-name="edieresis" unicode="&#xeb;" horiz-adv-x="808" 
d="M734 497h-515q0 -163 28 -253q45 -144 172 -144q163 0 174 237h136q-5 -131 -59 -220q-83 -137 -255 -137q-171 0 -254 122q-89 131 -89 417q0 244 77 371q40 66 108 103t151 37q179 0 261 -152q67 -123 67 -308q0 -24 -2 -73zM586 610q0 300 -179 300q-181 0 -185 -300
h364zM315 1365v-184h-147v184h147zM640 1365v-184h-146v184h146z" />
    <glyph glyph-name="iacute" unicode="&#xed;" horiz-adv-x="369" 
d="M258 1010v-1010h-147v1010h147zM242 1365h223l-223 -259h-119z" />
    <glyph glyph-name="igrave" unicode="&#xec;" horiz-adv-x="369" 
d="M258 1010v-1010h-147v1010h147zM127 1365l119 -259h-119l-223 259h223z" />
    <glyph glyph-name="icircumflex" unicode="&#xee;" horiz-adv-x="369" 
d="M258 1010v-1010h-147v1010h147zM258 1365l189 -259h-150l-115 173l-107 -173h-153l187 259h149z" />
    <glyph glyph-name="idieresis" unicode="&#xef;" horiz-adv-x="369" 
d="M258 1010v-1010h-147v1010h147zM151 1365v-184h-141v184h141zM360 1365v-184h-139v184h139z" />
    <glyph glyph-name="ntilde" unicode="&#xf1;" horiz-adv-x="856" 
d="M111 1010h137v-116q42 56 81 83q71 47 166 47q124 0 192 -82q39 -48 48 -101q11 -60 11 -158v-683h-147v653q0 119 -11 154q-29 97 -135 97q-99 0 -152 -76q-27 -39 -35 -84q-8 -51 -8 -118v-626h-147v1010zM625 1327h98q-6 -70 -36 -116q-45 -67 -133 -67q-54 0 -175 47
q-44 17 -70 17q-58 0 -73 -64h-103q30 184 174 184q50 0 178 -48q44 -17 73 -17q55 0 67 64z" />
    <glyph glyph-name="oacute" unicode="&#xf3;" horiz-adv-x="833" 
d="M421 1030q159 0 244 -120q95 -135 95 -405q0 -525 -344 -525q-164 0 -249 120q-95 137 -95 401q0 529 349 529zM413 910q-106 0 -150 -105q-41 -99 -41 -301q0 -200 41 -299q44 -105 153 -105t153 105q41 99 41 295q0 209 -41 305q-45 105 -156 105zM473 1365h223
l-223 -259h-119z" />
    <glyph glyph-name="ograve" unicode="&#xf2;" horiz-adv-x="833" 
d="M421 1030q159 0 244 -120q95 -135 95 -405q0 -525 -344 -525q-164 0 -249 120q-95 137 -95 401q0 529 349 529zM413 910q-106 0 -150 -105q-41 -99 -41 -301q0 -200 41 -299q44 -105 153 -105t153 105q41 99 41 295q0 209 -41 305q-45 105 -156 105zM359 1365l119 -259
h-119l-223 259h223z" />
    <glyph glyph-name="ocircumflex" unicode="&#xf4;" horiz-adv-x="833" 
d="M421 1030q159 0 244 -120q95 -135 95 -405q0 -525 -344 -525q-164 0 -249 120q-95 137 -95 401q0 529 349 529zM413 910q-106 0 -150 -105q-41 -99 -41 -301q0 -200 41 -299q44 -105 153 -105t153 105q41 99 41 295q0 209 -41 305q-45 105 -156 105zM490 1365l189 -259
h-150l-115 173l-107 -173h-153l187 259h149z" />
    <glyph glyph-name="odieresis" unicode="&#xf6;" horiz-adv-x="833" 
d="M421 1030q159 0 244 -120q95 -135 95 -405q0 -525 -344 -525q-164 0 -249 120q-95 137 -95 401q0 529 349 529zM413 910q-106 0 -150 -105q-41 -99 -41 -301q0 -200 41 -299q44 -105 153 -105t153 105q41 99 41 295q0 209 -41 305q-45 105 -156 105zM327 1365v-184h-147
v184h147zM652 1365v-184h-146v184h146z" />
    <glyph glyph-name="otilde" unicode="&#xf5;" horiz-adv-x="833" 
d="M421 1030q159 0 244 -120q95 -135 95 -405q0 -525 -344 -525q-164 0 -249 120q-95 137 -95 401q0 529 349 529zM413 910q-106 0 -150 -105q-41 -99 -41 -301q0 -200 41 -299q44 -105 153 -105t153 105q41 99 41 295q0 209 -41 305q-45 105 -156 105zM613 1327h98
q-6 -70 -36 -116q-45 -67 -133 -67q-54 0 -175 47q-44 17 -70 17q-58 0 -73 -64h-103q30 184 174 184q50 0 178 -48q44 -17 73 -17q55 0 67 64z" />
    <glyph glyph-name="uacute" unicode="&#xfa;" horiz-adv-x="856" 
d="M746 1010v-1010h-137v116q-42 -56 -81 -83q-71 -47 -166 -47q-124 0 -192 82q-39 48 -48 101q-11 60 -11 158v683h147v-653q0 -119 11 -154q29 -97 135 -97q99 0 152 76q27 39 35 84q8 51 8 118v626h147zM486 1365h223l-223 -259h-119z" />
    <glyph glyph-name="ugrave" unicode="&#xf9;" horiz-adv-x="856" 
d="M746 1010v-1010h-137v116q-42 -56 -81 -83q-71 -47 -166 -47q-124 0 -192 82q-39 48 -48 101q-11 60 -11 158v683h147v-653q0 -119 11 -154q29 -97 135 -97q99 0 152 76q27 39 35 84q8 51 8 118v626h147zM371 1365l119 -259h-119l-223 259h223z" />
    <glyph glyph-name="ucircumflex" unicode="&#xfb;" horiz-adv-x="856" 
d="M746 1010v-1010h-137v116q-42 -56 -81 -83q-71 -47 -166 -47q-124 0 -192 82q-39 48 -48 101q-11 60 -11 158v683h147v-653q0 -119 11 -154q29 -97 135 -97q99 0 152 76q27 39 35 84q8 51 8 118v626h147zM502 1365l189 -259h-150l-115 173l-107 -173h-153l187 259h149z
" />
    <glyph glyph-name="udieresis" unicode="&#xfc;" horiz-adv-x="856" 
d="M746 1010v-1010h-137v116q-42 -56 -81 -83q-71 -47 -166 -47q-124 0 -192 82q-39 48 -48 101q-11 60 -11 158v683h147v-653q0 -119 11 -154q29 -97 135 -97q99 0 152 76q27 39 35 84q8 51 8 118v626h147zM339 1365v-184h-147v184h147zM664 1365v-184h-146v184h146z" />
    <glyph glyph-name="dagger" unicode="&#x2020;" horiz-adv-x="844" 
d="M796 889v-113h-301v-1104h-147v1104h-300v113h300v476h147v-476h301z" />
    <glyph glyph-name="degree" unicode="&#xb0;" horiz-adv-x="745" 
d="M376 1385q115 0 199 -83q84 -82 84 -199q0 -116 -83 -199q-85 -84 -203 -84q-119 0 -203 84q-84 83 -84 199q0 119 84 199q86 83 206 83zM370 1292q-76 0 -133 -56q-55 -55 -55 -133q0 -79 55 -134q56 -56 135 -56q80 0 136 56q55 55 55 133q0 80 -56 134q-57 56 -137 56
z" />
    <glyph glyph-name="cent" unicode="&#xa2;" horiz-adv-x="915" 
d="M514 1099v-805q68 14 100 70q37 62 39 189l142 -3q1 -168 -74 -267q-74 -96 -207 -110v-214h-87v214q-107 10 -183 80q-126 116 -126 456q0 339 149 450q67 49 160 60v187h87v-186q117 -10 188 -85q82 -86 85 -250h-140q-1 186 -133 214zM427 1098q-51 -11 -87 -50
q-72 -77 -72 -343q0 -303 89 -376q30 -24 70 -34v803z" />
    <glyph glyph-name="sterling" unicode="&#xa3;" horiz-adv-x="915" 
d="M632 696v-86h-263q24 -70 24 -132q0 -87 -45 -174q-32 -60 -108 -139q98 25 158 25q54 0 114 -18q12 -4 84 -30q44 -16 75 -16q55 0 147 60l59 -110q-122 -76 -225 -76q-59 0 -164 34q-91 29 -147 29q-85 0 -156 -38q-26 -14 -67 -45l-81 117q86 69 134 131q76 98 76 213
q0 88 -44 169h-166v86h120q-83 151 -83 278q0 183 128 296q100 89 247 89q238 0 335 -180q43 -79 47 -234h-147q0 84 -14 130q-47 157 -216 157q-145 0 -204 -115q-31 -61 -31 -148q0 -60 32 -131q30 -63 81 -142h300z" />
    <glyph glyph-name="section" unicode="&#xa7;" horiz-adv-x="958" 
d="M776 1064h-148q-2 198 -166 198q-75 0 -119 -40q-47 -43 -47 -115q0 -67 44 -111q28 -29 128 -96l157 -105q111 -74 134 -93q114 -95 114 -219q0 -164 -194 -286q54 -42 81 -80q51 -70 51 -161q0 -134 -93 -220q-91 -84 -241 -84q-153 0 -245 91q-89 89 -89 214
q0 10 1 30h147q-1 -13 -1 -19q0 -68 34 -120q48 -74 158 -74q87 0 136 52q46 47 46 125q0 62 -35 102q-28 31 -130 100l-185 126q-123 83 -174 148q-54 69 -54 155q0 167 193 275q-130 104 -130 240q0 131 90 212q86 76 227 76q187 0 267 -129q41 -66 43 -192zM368 792
q-135 -82 -135 -189q0 -62 47 -110q50 -51 162 -126l151 -101q134 93 134 192q0 61 -47 112q-37 41 -140 109z" />
    <glyph glyph-name="bullet" unicode="&#x2022;" horiz-adv-x="1365" 
d="M689 978q113 0 196 -83q84 -83 84 -201t-83 -201t-201 -83q-116 0 -199 82q-85 84 -85 202q0 121 84 202q86 82 204 82z" />
    <glyph glyph-name="paragraph" unicode="&#xb6;" horiz-adv-x="915" 
d="M788 1365v-1693h-120v1570h-137v-1570h-120v902h-11q-151 0 -233 81q-108 107 -108 315q0 224 121 328q79 67 243 67h365z" />
    <glyph glyph-name="germandbls" unicode="&#xdf;" horiz-adv-x="878" 
d="M373 705v110h17q213 0 213 221q0 94 -46 154q-45 59 -129 59q-108 0 -142 -80q-20 -47 -23 -110q-5 -84 -5 -181v-878h-147v881q0 209 22 286q59 212 297 212q150 0 231 -93q79 -90 79 -247q0 -196 -145 -267q84 -35 128 -87q79 -93 79 -266q0 -199 -97 -315
q-94 -111 -244 -111q-35 0 -88 7v122q32 -7 56 -7q88 0 141 51q37 37 59.5 106.5t22.5 151.5q0 154 -79 227q-60 55 -159 55q-15 0 -41 -1z" />
    <glyph glyph-name="registered" unicode="&#xae;" horiz-adv-x="1446" 
d="M733 1390q120 0 235.5 -54t204.5 -153q90 -98 138.5 -229t48.5 -272q0 -140 -48.5 -270t-137.5 -230q-90 -99 -207 -153t-243 -54t-243 53.5t-207 152.5q-89 99 -138.5 230t-49.5 270q0 142 49 273.5t139 229.5q188 206 459 206zM718 1310q-105 0 -205 -47.5t-177 -135.5
q-162 -183 -162 -444t163 -445q161 -183 387 -183q227 0 387 184q77 87 119 203t42 239q0 263 -161 446t-393 183zM607 647v-347h-107v779h229q114 0 170 -50.5t56 -154.5q0 -139 -109 -182q51 -13 74 -45q33 -41 33 -128v-85q0 -47 10 -74.5t39 -59.5h-130q-23 58 -25 134
v72q-1 79 -26 108q-28 32 -116 33h-98zM607 733h115q126 0 126 130t-126 130h-115v-260z" />
    <glyph glyph-name="copyright" unicode="&#xa9;" horiz-adv-x="1446" 
d="M733 1390q120 0 235.5 -54t204.5 -153q90 -98 138.5 -229t48.5 -272q0 -140 -48.5 -270t-137.5 -230q-90 -99 -207 -153t-243 -54t-243 53.5t-207 152.5q-89 99 -138.5 230t-49.5 270q0 142 49 273.5t139 229.5q188 206 459 206zM718 1310q-105 0 -205 -47.5t-177 -135.5
q-162 -183 -162 -444t163 -445q161 -183 387 -183q227 0 387 184q77 87 119 203t42 239q0 263 -161 446t-393 183zM959 840h-104q-9 166 -130 166q-86 0 -122 -88q-28 -67 -28 -200q0 -179 30 -254q36 -91 121 -91q134 0 137 219h105q-14 -305 -244 -305q-141 0 -203 115
q-53 98 -53 296q0 224 74 313q68 81 186 81q143 0 201 -119q27 -54 30 -133z" />
    <glyph glyph-name="trademark" unicode="&#x2122;" horiz-adv-x="1311" 
d="M319 1275v-688h-107v688h-198v90h503v-90h-198zM954 587h-91l-151 514l-13 43l-13 45l-3 12q2 -46 2 -110v-504h-101v778h156l135 -481q21 -77 35 -135q10 47 32 130l132 486h155v-778h-101v504q0 24 2 107q-17 -61 -31 -109z" />
    <glyph glyph-name="acute" unicode="&#xb4;" 
d="M569 1365h223l-223 -259h-119z" />
    <glyph glyph-name="dieresis" unicode="&#xa8;" 
d="M423 1365v-184h-147v184h147zM748 1365v-184h-146v184h146z" />
    <glyph glyph-name="notequal" unicode="&#x2260;" 
d="M557 915l112 231l102 -41l-92 -190h277v-131h-337l-91 -190h428v-131h-488l-113 -235l-102 41l92 194h-277v131h338l91 190h-429v131h489z" />
    <glyph glyph-name="AE" unicode="&#xc6;" horiz-adv-x="1508" 
d="M707 393h-392l-139 -393h-165l491 1365h912v-143h-546v-438h531v-137h-531v-504h560v-143h-721v393zM707 536v686h-102l-238 -686h340z" />
    <glyph glyph-name="Oslash" unicode="&#xd8;" horiz-adv-x="1045" 
d="M231 93l-78 -130l-93 55l105 174q-76 157 -76 490q0 360 88 515q109 193 344 193q179 0 292 -117l78 129l93 -59l-103 -172q75 -158 75 -487q0 -361 -88 -516q-109 -193 -344 -193q-184 0 -293 118zM316 235q69 -123 206 -123q158 0 221 155q52 128 52 412q0 199 -23 312
zM273 372l455 758q-64 123 -206 123q-158 0 -220 -155q-52 -128 -52 -416q0 -184 23 -310z" />
    <glyph glyph-name="infinity" unicode="&#x221e;" horiz-adv-x="1365" 
d="M686 598q-152 -215 -338 -215q-156 0 -243 110q-67 84 -67 207q0 175 138 261q78 49 172 49q187 0 332 -214q146 215 340 215q159 0 246 -116q62 -83 62 -200q0 -150 -98 -236q-87 -77 -209 -77q-191 0 -335 216zM757 697q33 -53 62 -87q85 -102 185 -102q82 0 133 60
q45 52 45 129q0 96 -68 149q-49 39 -111 39q-104 0 -190 -108q-12 -15 -34.5 -47t-21.5 -33zM609 696q-32 52 -62 87q-86 101 -185 101q-82 0 -134 -60q-44 -51 -44 -127q0 -98 68 -150q50 -39 111 -39q103 0 190 109q12 14 34.5 46t21.5 33z" />
    <glyph glyph-name="plusminus" unicode="&#xb1;" horiz-adv-x="915" 
d="M831 740v-109h-318v-288h-112v288h-318v109h318v283h112v-283h318zM831 286v-109h-748v109h748z" />
    <glyph glyph-name="lessequal" unicode="&#x2264;" 
d="M955 1246v-140l-730 -324l730 -322v-141l-887 398v127zM955 259v-137h-887v137h887z" />
    <glyph glyph-name="greaterequal" unicode="&#x2265;" 
d="M68 319v141l730 323l-730 323v140l887 -402v-128zM68 122v137h887v-137h-887z" />
    <glyph glyph-name="yen" unicode="&#xa5;" horiz-adv-x="915" 
d="M522 475v-475h-147v475h-310v86h291l-85 189h-226v86h187l-228 502h174l191 -451q50 -114 86 -207q43 110 86 207l196 451h174l-239 -502h198v-86h-239l-89 -189h307v-86h-327z" />
    <glyph glyph-name="mu" unicode="&#xb5;" horiz-adv-x="856" 
d="M111 1010h147v-626q0 -112 18 -163q22 -66 74 -101q40 -27 78 -27q35 0 70.5 21.5t57.5 55.5q27 41 35 88q8 54 8 126v626h147v-1010h-137v102q-79 -116 -181 -116q-101 0 -180 116v-430h-137v1338z" />
    <glyph glyph-name="partialdiff" unicode="&#x2202;" 
d="M175 1242l19 130q174 -24 285 -71q254 -109 382 -364q100 -198 100 -437q0 -196 -83 -324q-65 -99 -169 -152q-92 -46 -196 -46q-150 0 -273 96q-84 67 -130.5 162.5t-46.5 203.5q0 140 77 259q64 100 169 150q86 41 181 41q128 0 215 -62q35 -26 87 -90l-13 34
q-50 120 -80 165q-50 72 -109.5 123.5t-149.5 98.5q-117 63 -265 83zM517 779q-113 0 -199 -83q-49 -47 -77.5 -118t-28.5 -145q0 -154 102 -256q85 -86 198 -86q114 0 198 86q101 103 101 267q0 173 -105 264q-82 71 -189 71z" />
    <glyph glyph-name="summation" unicode="&#x2211;" horiz-adv-x="1365" 
d="M1224 1536v-467h-134l-13 329h-855l517 -845l-517 -928h874l8 326h139v-463h-1185v154l509 911l-509 832v151h1166z" />
    <glyph glyph-name="product" unicode="&#x220f;" horiz-adv-x="1430" 
d="M75 1536h1280v-137h-163v-1774h163v-137h-478v137h168v1774h-661v-1774h167v-137h-476v137h162v1774h-162v137z" />
    <glyph glyph-name="pi" unicode="&#x3c0;" horiz-adv-x="1185" 
d="M209 0v849h-152v132h1072v-132h-150v-849h-147v849h-476v-849h-147z" />
    <glyph glyph-name="integral" unicode="&#x222b;" 
d="M197 -490l32 131q53 -21 93 -21q95 0 110 92q6 35 6 154v1265q0 197 18 256q20 68 83 110q59 39 149 39q58 0 138 -22l-32 -131q-53 21 -92 21q-96 0 -111 -92q-5 -26 -6 -220v-1199q0 -169 -12 -229q-18 -96 -104 -140q-65 -33 -155 -33q-65 0 -117 19z" />
    <glyph glyph-name="ordfeminine" unicode="&#xaa;" horiz-adv-x="599" 
d="M210 1217h-95q0 57 14 90q36 78 163 78q87 0 131 -38q41 -35 41 -119v-233q1 -54 4 -60q5 -8 18 -8q9 0 25 5v-73q-25 -5 -43 -5q-65 0 -90 53q-59 -60 -131 -60q-66 0 -108 42q-40 41 -40 107q0 81 58 119q32 21 126 43q64 15 76 25q13 12 13 43q0 37 -14 55
q-18 23 -68 23q-54 0 -72 -26q-9 -14 -9 -43q0 -6 1 -18zM370 1108q-28 -10 -61 -19q-66 -17 -83 -29q-26 -18 -26 -59q0 -73 67 -73q50 0 80 39q23 30 23 103v38zM512 741v-96h-425v96h425z" />
    <glyph glyph-name="ordmasculine" unicode="&#xba;" horiz-adv-x="512" 
d="M259 1385q89 0 137 -64q52 -69 52 -206q0 -269 -192 -269t-192 268q0 271 195 271zM254 1304q-48 0 -68 -45q-21 -46 -21 -144q0 -97 21 -143q20 -45 70 -45t70 45q21 46 21 141q0 101 -21 146t-72 45zM448 741v-96h-384v96h384z" />
    <glyph glyph-name="Omega" unicode="&#x2126;" horiz-adv-x="1365" 
d="M58 0v132h369q-369 217 -369 611q0 307 220 502q173 153 405 153t404 -153q220 -195 220 -502q0 -395 -368 -611h368v-132h-534v119q144 82 222 171q162 183 162 437q0 244 -163 406q-134 133 -308 133q-170 0 -302 -116q-176 -156 -176 -422q0 -393 385 -609v-119h-535z
" />
    <glyph glyph-name="ae" unicode="&#xe6;" horiz-adv-x="1244" 
d="M1170 505h-485q1 -165 3 -200t11 -74q15 -64 67 -101q42 -30 94 -30q75 0 116.5 61t47.5 178h147q-21 -156 -73 -230q-91 -129 -253 -129q-101 0 -175 59q-49 40 -87 123q-41 -90 -93 -127q-77 -55 -171 -55q-99 0 -166 65q-83 79 -83 223q0 176 136 260q35 22 143 50
q12 3 89 22q65 16 82 41q16 24 16 70q0 99 -28 144q-15 24 -49 40t-72 16q-91 0 -137 -71q-24 -36 -28 -99h-137q8 124 60 186q86 104 244 104q161 0 243 -105q88 104 222 104q70 0 137.5 -34.5t104.5 -90.5q76 -111 76 -315q0 -28 -2 -85zM1023 618q0 84 -9 132
q-29 160 -164 160q-119 0 -152 -124q-7 -25 -13 -168h338zM535 505q-74 -25 -141 -43q-101 -26 -139 -67q-48 -50 -48 -131q0 -76 42 -123q37 -41 100 -41q76 0 125 53q59 65 61 196v94v62z" />
    <glyph glyph-name="oslash" unicode="&#xf8;" horiz-adv-x="832" 
d="M191 72l-75 -116l-83 54l99 152q-59 125 -59 343q0 525 343 525q132 0 223 -88l80 124l81 -54l-102 -157q63 -131 63 -350q0 -268 -95 -404q-84 -121 -248 -121q-142 0 -227 92zM269 193q49 -93 148 -93q109 0 153 105q41 99 41 304q0 112 -13 191zM233 318l328 504
q-49 88 -145 88q-108 0 -152 -105q-41 -99 -41 -300q0 -103 10 -187z" />
    <glyph glyph-name="questiondown" unicode="&#xbf;" horiz-adv-x="824" 
d="M349 676h150q1 -37 1 -55q0 -110 -24 -173q-24 -61 -136 -195q-69 -83 -88 -126q-29 -61 -29 -132q0 -101 50 -166q46 -61 137 -61q131 0 176 123q20 53 20 166h153q-3 -174 -52 -263q-89 -163 -298 -163q-156 0 -249 96q-94 97 -94 260q0 101 46 189q30 57 121 163
q75 88 94 123q24 45 24 132q0 35 -2 82zM336 819v191h177v-191h-177z" />
    <glyph glyph-name="exclamdown" unicode="&#xa1;" horiz-adv-x="396" 
d="M157 683h81l43 -619v-405h-167v405zM109 819v191h177v-191h-177z" />
    <glyph glyph-name="logicalnot" unicode="&#xac;" 
d="M808 0v409h-740v137h887v-546h-147z" />
    <glyph glyph-name="radical" unicode="&#x221a;" horiz-adv-x="1365" 
d="M1365 1698v-137h-402l-444 -1561h-180l-169 613h-170v137h290l76 -266q10 -35 29 -132q7 -35 30 -151h11q7 38 40 176l50 217l88 311l223 793h528z" />
    <glyph glyph-name="florin" unicode="&#x192;" horiz-adv-x="915" 
d="M685 943l-18 -86h-147l-230 -1185h-147l230 1185h-135l17 86h135l59 305q16 79 41.5 125.5t70.5 74.5q63 39 177 40h52l-25 -127h-32q-64 -1 -92 -21q-31 -22 -46 -99l-58 -298h148z" />
    <glyph glyph-name="approxequal" unicode="&#x2248;" 
d="M107 712l-87 56q34 72 75 128q81 106 205 106q77 0 230 -71q103 -48 135 -56q33 -9 63 -9q73 0 121 49q30 31 66 92l89 -53q-55 -110 -111 -159q-82 -70 -182 -70q-35 0 -90 17q-57 18 -197 82q-83 38 -137 38q-99 0 -180 -150zM107 372l-87 56q34 73 75 128
q81 107 205 107q77 0 230 -71q102 -48 135 -57q34 -9 64 -9q72 0 120 49q30 31 66 92l89 -53q-55 -110 -111 -159q-82 -70 -182 -70q-35 0 -90 17q-57 18 -197 82q-82 38 -137 38q-65 0 -116 -55q-30 -33 -64 -95z" />
    <glyph glyph-name="Delta" unicode="&#x2206;" horiz-adv-x="1365" 
d="M57 0l545 1365h157l550 -1365h-1252zM268 137h828l-414 1049z" />
    <glyph glyph-name="guillemotleft" unicode="&#xab;" horiz-adv-x="771" 
d="M675 886v-169l-179 -183l179 -183v-171l-275 278v142zM348 886v-169l-179 -183l179 -183v-171l-276 278v142z" />
    <glyph glyph-name="guillemotright" unicode="&#xbb;" horiz-adv-x="771" 
d="M96 886l276 -286v-142l-276 -278v171l179 183l-179 183v169zM424 886l275 -286v-142l-275 -278v171l179 183l-179 183v169z" />
    <glyph glyph-name="ellipsis" unicode="&#x2026;" horiz-adv-x="1180" 
d="M290 198v-198h-188v198h188zM683 198v-198h-188v198h188zM1077 198v-198h-188v198h188z" />
    <glyph glyph-name="glyph172" horiz-adv-x="915" 
 />
    <glyph glyph-name="Agrave" unicode="&#xc0;" horiz-adv-x="1028" 
d="M731 392h-447l-108 -392h-165l394 1365h206l406 -1365h-175zM693 529l-119 421q-33 122 -67 261q-29 -120 -68 -261l-117 -421h371zM146 1713h302l162 -170h-162z" />
    <glyph glyph-name="Atilde" unicode="&#xc3;" horiz-adv-x="1028" 
d="M731 392h-447l-108 -392h-165l394 1365h206l406 -1365h-175zM693 529l-119 421q-33 122 -67 261q-29 -120 -68 -261l-117 -421h371zM711 1716h98q-6 -70 -36 -116q-45 -67 -133 -67q-54 0 -175 47q-44 17 -70 17q-58 0 -73 -64h-103q30 184 174 184q50 0 178 -48
q44 -17 73 -17q55 0 67 64z" />
    <glyph glyph-name="Otilde" unicode="&#xd5;" horiz-adv-x="1044" 
d="M529 1390q146 0 250 -85q109 -89 148 -280q29 -142 29 -342q0 -359 -88 -515q-109 -193 -345 -193q-258 0 -362 224q-72 155 -72 485q0 358 88 513q109 193 352 193zM519 1253q-155 0 -217 -155q-52 -129 -52 -415q0 -313 63 -440q64 -131 209 -131q159 0 221 155
q52 129 52 418q0 311 -62 437q-65 131 -214 131zM719 1716h98q-6 -70 -36 -116q-45 -67 -133 -67q-54 0 -175 47q-44 17 -70 17q-58 0 -73 -64h-103q30 184 174 184q50 0 178 -48q44 -17 73 -17q55 0 67 64z" />
    <glyph glyph-name="OE" unicode="&#x152;" horiz-adv-x="1566" 
d="M949 647v-504h538v-143h-698v143q-80 -168 -283 -168q-418 0 -418 713q0 342 106 530q44 78 128 127q77 45 165 45q120 0 210 -71q32 -26 92 -97v143h665v-143h-505v-438h505v-137h-505zM520 1253q-63 0 -115.5 -32t-82.5 -89q-38 -73 -55.5 -176.5t-17.5 -263.5
q0 -302 68 -444q33 -67 97 -106q51 -31 115 -31q98 0 166 70q58 61 78 173q17 93 17 289q0 273 -20 372q-47 238 -250 238z" />
    <glyph glyph-name="oe" unicode="&#x153;" horiz-adv-x="1349" 
d="M684 130q-89 -150 -268 -150q-344 0 -344 525t344 525q175 0 268 -150q89 150 264 150q179 0 261 -152q67 -122 67 -316q0 -22 -1 -65h-516q1 -163 29 -253q45 -144 172 -144q163 0 174 237h135q-4 -131 -58 -220q-83 -137 -255 -137q-186 0 -272 150zM413 910
q-106 0 -150 -105q-41 -98 -41 -300q0 -201 41 -300q44 -105 153 -105t153 105q41 99 41 295q0 209 -41 305q-45 105 -156 105zM1127 610q0 300 -179 300q-181 0 -185 -300h364z" />
    <glyph glyph-name="endash" unicode="&#x2013;" horiz-adv-x="915" 
d="M827 605v-143h-740v143h740z" />
    <glyph glyph-name="emdash" unicode="&#x2014;" horiz-adv-x="1120" 
d="M1120 605v-143h-1120v143h1120z" />
    <glyph glyph-name="quotedblleft" unicode="&#x201c;" horiz-adv-x="728" 
d="M619 911h-188v184q-1 244 188 295v-100q-88 -39 -84 -181h84v-198zM298 911h-188v184q-1 244 188 295v-100q-88 -39 -84 -181h84v-198z" />
    <glyph glyph-name="quotedblright" unicode="&#x201d;" horiz-adv-x="728" 
d="M109 1365h188v-184q1 -245 -188 -296v100q88 40 84 182h-84v198zM430 1365h188v-184q1 -245 -188 -296v100q88 40 84 182h-84v198z" />
    <glyph glyph-name="quoteleft" unicode="&#x2018;" horiz-adv-x="407" 
d="M298 911h-188v184q-1 244 188 295v-100q-88 -39 -84 -181h84v-198z" />
    <glyph glyph-name="quoteright" unicode="&#x2019;" horiz-adv-x="407" 
d="M109 1365h188v-184q1 -245 -188 -296v100q88 40 84 182h-84v198z" />
    <glyph glyph-name="divide" unicode="&#xf7;" horiz-adv-x="915" 
d="M831 740v-109h-748v109h748zM545 505v-184h-175v184h175zM370 866v184h175v-184h-175z" />
    <glyph glyph-name="lozenge" unicode="&#x25ca;" horiz-adv-x="1365" 
d="M683 1419l531 -736l-531 -736l-532 736zM683 1238l-404 -555l404 -554l403 554z" />
    <glyph glyph-name="ydieresis" unicode="&#xff;" horiz-adv-x="790" 
d="M638 1010h159l-341 -1070q-48 -149 -101 -203q-62 -65 -182 -65q-62 0 -106 13v122q49 -15 92 -15q116 0 151 161l10 47l-327 1010h165l162 -550q44 -152 81 -299q53 217 76 299zM306 1365v-184h-147v184h147zM631 1365v-184h-146v184h146z" />
    <glyph glyph-name="Ydieresis" unicode="&#x178;" horiz-adv-x="920" 
d="M532 547v-547h-161v547l-371 818h181l191 -451q49 -114 86 -208q33 85 86 208l196 451h180zM375 1713v-177h-150v177h150zM696 1713v-177h-150v177h150z" />
    <glyph glyph-name="fraction" unicode="&#x2215;" horiz-adv-x="262" 
d="M617 1352l-870 -1352h-102l871 1352h101z" />
    <glyph glyph-name="currency" unicode="&#xa4;" horiz-adv-x="915" 
d="M63 344l129 130q-66 91 -66 195q0 101 66 193l-132 131l69 69l131 -131q94 68 198 68q103 0 195 -67l131 130l69 -69l-131 -130q67 -95 67 -195q0 -102 -65 -193l131 -131l-69 -69l-131 131q-89 -67 -196 -67q-100 0 -197 67l-130 -131zM455 891q-89 0 -154 -66
q-64 -64 -64 -156t65 -157q64 -65 155 -65q92 0 157 65q64 64 64 156q0 94 -64 157q-67 66 -159 66z" />
    <glyph glyph-name="guilsinglleft" unicode="&#x2039;" horiz-adv-x="444" 
d="M348 886v-169l-179 -183l179 -183v-171l-276 278v142z" />
    <glyph glyph-name="guilsinglright" unicode="&#x203a;" horiz-adv-x="444" 
d="M96 886l276 -286v-142l-276 -278v171l179 183l-179 183v169z" />
    <glyph glyph-name="fi" unicode="&#xf001;" horiz-adv-x="842" 
d="M166 897h-135v113h135v115q0 80 17 126t55 74q56 39 171 40h52v-127h-32q-65 -1 -89 -21q-26 -23 -27 -99v-108h148v-113h-148v-897h-147v897zM731 1010v-1010h-147v1010h147zM731 1365v-184h-147v184h147z" />
    <glyph glyph-name="fl" unicode="&#xf002;" horiz-adv-x="842" 
d="M166 897h-135v113h135v115q0 80 17 126t55 74q56 39 171 40h52v-127h-32q-65 -1 -89 -21q-26 -23 -27 -99v-108h148v-113h-148v-897h-147v897zM731 1365v-1365h-147v1365h147z" />
    <glyph glyph-name="daggerdbl" unicode="&#x2021;" horiz-adv-x="844" 
d="M796 889v-113h-301v-514h301v-113h-301v-477h-147v477h-300v113h300v514h-300v113h300v476h147v-476h301z" />
    <glyph glyph-name="periodcentered" unicode="&#x2219;" horiz-adv-x="393" 
d="M290 632v-198h-188v198h188z" />
    <glyph glyph-name="quotesinglbase" unicode="&#x201a;" horiz-adv-x="407" 
d="M109 198h188v-184q1 -245 -188 -296v100q88 40 84 182h-84v198z" />
    <glyph glyph-name="quotedblbase" unicode="&#x201e;" horiz-adv-x="728" 
d="M109 198h188v-184q1 -245 -188 -296v100q88 40 84 182h-84v198zM430 198h188v-184q1 -245 -188 -296v100q88 40 84 182h-84v198z" />
    <glyph glyph-name="perthousand" unicode="&#x2030;" horiz-adv-x="2075" 
d="M314 1379q136 0 196 -130q43 -92 43 -308q0 -236 -53 -328q-63 -111 -189 -111q-140 0 -200 130q-43 92 -43 310q0 234 53 326q63 111 193 111zM310 1281q-72 0 -100 -91q-22 -68 -22 -249q0 -197 27 -264q30 -77 96 -77q72 0 102 91q21 67 21 252q0 196 -26 262
q-31 76 -98 76zM1149 1352l-733 -1352h-106l734 1352h105zM1153 857q136 0 197 -130q42 -91 42 -308q0 -236 -52 -328q-64 -111 -190 -111q-139 0 -199 130q-43 92 -43 310q0 234 53 326q63 111 192 111zM1149 757q-71 0 -99 -90q-22 -69 -22 -248q0 -196 27 -263
q30 -76 96 -76q72 0 101 90q21 68 21 251q0 194 -26 260q-31 76 -98 76zM1768 857q136 0 196 -130q43 -91 43 -308q0 -236 -53 -328q-63 -111 -189 -111q-140 0 -200 130q-43 92 -43 310q0 234 53 326q63 111 193 111zM1764 757q-71 0 -100 -90q-22 -68 -22 -248
q0 -196 27 -263q30 -76 96 -76q73 0 101 90q22 67 22 251q0 194 -26 260q-31 76 -98 76z" />
    <glyph glyph-name="Acircumflex" unicode="&#xc2;" horiz-adv-x="1028" 
d="M731 392h-447l-108 -392h-165l394 1365h206l406 -1365h-175zM693 529l-119 421q-33 122 -67 261q-29 -120 -68 -261l-117 -421h371zM608 1713l169 -170h-164l-101 114l-101 -114h-159l166 170h190z" />
    <glyph glyph-name="Ecircumflex" unicode="&#xca;" horiz-adv-x="958" 
d="M859 1365v-143h-571v-438h548v-137h-548v-504h590v-143h-751v1365h732zM573 1713l169 -170h-164l-101 114l-101 -114h-159l166 170h190z" />
    <glyph glyph-name="Aacute" unicode="&#xc1;" horiz-adv-x="1028" 
d="M731 392h-447l-108 -392h-165l394 1365h206l406 -1365h-175zM693 529l-119 421q-33 122 -67 261q-29 -120 -68 -261l-117 -421h371zM883 1713l-302 -170h-162l162 170h302z" />
    <glyph glyph-name="Edieresis" unicode="&#xcb;" horiz-adv-x="958" 
d="M859 1365v-143h-571v-438h548v-137h-548v-504h590v-143h-751v1365h732zM393 1713v-177h-150v177h150zM714 1713v-177h-150v177h150z" />
    <glyph glyph-name="Egrave" unicode="&#xc8;" horiz-adv-x="958" 
d="M859 1365v-143h-571v-438h548v-137h-548v-504h590v-143h-751v1365h732zM110 1713h302l162 -170h-162z" />
    <glyph glyph-name="Iacute" unicode="&#xcd;" horiz-adv-x="415" 
d="M288 1365v-1365h-161v1365h161zM576 1713l-302 -170h-162l162 170h302z" />
    <glyph glyph-name="Icircumflex" unicode="&#xce;" horiz-adv-x="415" 
d="M288 1365v-1365h-161v1365h161zM301 1713l169 -170h-164l-101 114l-101 -114h-159l166 170h190z" />
    <glyph glyph-name="Idieresis" unicode="&#xcf;" horiz-adv-x="415" 
d="M288 1365v-1365h-161v1365h161zM168 1713v-177h-150v177h150zM398 1713v-177h-150v177h150z" />
    <glyph glyph-name="Igrave" unicode="&#xcc;" horiz-adv-x="415" 
d="M288 1365v-1365h-161v1365h161zM-161 1713h302l162 -170h-162z" />
    <glyph glyph-name="Oacute" unicode="&#xd3;" horiz-adv-x="1044" 
d="M529 1390q146 0 250 -85q109 -89 148 -280q29 -142 29 -342q0 -359 -88 -515q-109 -193 -345 -193q-258 0 -362 224q-72 155 -72 485q0 358 88 513q109 193 352 193zM519 1253q-155 0 -217 -155q-52 -129 -52 -415q0 -313 63 -440q64 -131 209 -131q159 0 221 155
q52 129 52 418q0 311 -62 437q-65 131 -214 131zM891 1713l-302 -170h-162l162 170h302z" />
    <glyph glyph-name="Ocircumflex" unicode="&#xd4;" horiz-adv-x="1044" 
d="M529 1390q146 0 250 -85q109 -89 148 -280q29 -142 29 -342q0 -359 -88 -515q-109 -193 -345 -193q-258 0 -362 224q-72 155 -72 485q0 358 88 513q109 193 352 193zM519 1253q-155 0 -217 -155q-52 -129 -52 -415q0 -313 63 -440q64 -131 209 -131q159 0 221 155
q52 129 52 418q0 311 -62 437q-65 131 -214 131zM616 1713l169 -170h-164l-101 114l-101 -114h-159l166 170h190z" />
    <glyph glyph-name="apple" unicode="&#xf000;" horiz-adv-x="1365" 
d="M984 1416v-20q0 -162 -127 -266q-80 -65 -146 -68q-13 -1 -31 -1q0 141 82 239q91 104 222 116zM1277 935q-65 -50 -98 -92q-67 -84 -67 -192q0 -150 111 -251q34 -30 92 -55q-66 -161 -139 -256q-110 -143 -208 -143q-39 0 -82 18l-83 34q-17 7 -75 7q-73 0 -98 -10
l-87 -35q-41 -17 -79 -17q-55 0 -113.5 43.5t-112.5 123.5q-172 256 -172 525q0 176 100 307q103 134 281 134q67 0 160 -35q68 -26 101 -26q31 0 85 21q71 27 101 35q36 10 87 10q189 0 296 -146z" />
    <glyph glyph-name="Ograve" unicode="&#xd2;" horiz-adv-x="1044" 
d="M529 1390q146 0 250 -85q109 -89 148 -280q29 -142 29 -342q0 -359 -88 -515q-109 -193 -345 -193q-258 0 -362 224q-72 155 -72 485q0 358 88 513q109 193 352 193zM519 1253q-155 0 -217 -155q-52 -129 -52 -415q0 -313 63 -440q64 -131 209 -131q159 0 221 155
q52 129 52 418q0 311 -62 437q-65 131 -214 131zM154 1713h302l162 -170h-162z" />
    <glyph glyph-name="Uacute" unicode="&#xda;" horiz-adv-x="1041" 
d="M752 1365h161v-915q0 -162 -30 -245q-44 -117 -147 -176q-94 -54 -216 -54q-101 0 -185 38.5t-133 106.5q-48 68 -61 147q-14 82 -14 183v915h161v-929q0 -140 22 -196q51 -128 210 -128q116 0 176 71q37 44 46 100q10 64 10 153v929zM889 1713l-302 -170h-162l162 170
h302z" />
    <glyph glyph-name="Ucircumflex" unicode="&#xdb;" horiz-adv-x="1041" 
d="M752 1365h161v-915q0 -162 -30 -245q-44 -117 -147 -176q-94 -54 -216 -54q-101 0 -185 38.5t-133 106.5q-48 68 -61 147q-14 82 -14 183v915h161v-929q0 -140 22 -196q51 -128 210 -128q116 0 176 71q37 44 46 100q10 64 10 153v929zM614 1713l169 -170h-164l-101 114
l-101 -114h-159l166 170h190z" />
    <glyph glyph-name="Ugrave" unicode="&#xd9;" horiz-adv-x="1041" 
d="M752 1365h161v-915q0 -162 -30 -245q-44 -117 -147 -176q-94 -54 -216 -54q-101 0 -185 38.5t-133 106.5q-48 68 -61 147q-14 82 -14 183v915h161v-929q0 -140 22 -196q51 -128 210 -128q116 0 176 71q37 44 46 100q10 64 10 153v929zM152 1713h302l162 -170h-162z" />
    <glyph glyph-name="dotlessi" unicode="&#x131;" horiz-adv-x="369" 
d="M258 1010v-1010h-147v1010h147z" />
    <glyph glyph-name="circumflex" unicode="&#x2c6;" 
d="M586 1365l189 -259h-150l-115 173l-107 -173h-153l187 259h149z" />
    <glyph glyph-name="tilde" unicode="&#x2dc;" 
d="M709 1327h98q-6 -70 -36 -116q-45 -67 -133 -67q-54 0 -175 47q-44 17 -70 17q-58 0 -73 -64h-103q30 184 174 184q50 0 178 -48q44 -17 73 -17q55 0 67 64z" />
    <glyph glyph-name="macron" unicode="&#x2c9;" 
d="M802 1290v-109h-580v109h580z" />
    <glyph glyph-name="breve" unicode="&#x2d8;" 
d="M708 1363h105q-22 -93 -74 -153q-86 -100 -227 -100q-152 0 -239 115q-43 56 -62 138h105q64 -141 196 -141q133 0 196 141z" />
    <glyph glyph-name="dotaccent" unicode="&#x2d9;" 
d="M585 1365v-184h-147v184h147z" />
    <glyph glyph-name="ring" unicode="&#x2da;" 
d="M514 1426q63 0 109 -46t46 -111t-46 -111t-111 -46t-111 46t-46 111q0 66 46 111q47 46 113 46zM512 1348q-32 0 -55 -23t-23 -56q0 -32 23 -55t56 -23q32 0 55 23t23 55q0 34 -23 56q-24 23 -56 23z" />
    <glyph glyph-name="cedilla" unicode="&#xb8;" 
d="M586 0l-57 -114q27 6 47 6q55 0 87 -32q37 -37 37 -94q0 -66 -49 -113q-43 -42 -115 -42q-74 0 -152 42l20 62q61 -38 115 -38q26 0 47 17q26 22 26 63q0 36 -23 58q-18 16 -46 16q-25 0 -55 -13l-26 29l71 153h73z" />
    <glyph glyph-name="hungarumlaut" unicode="&#x2dd;" 
d="M433 1365h223l-223 -259h-119zM706 1365h223l-223 -259h-119z" />
    <glyph glyph-name="ogonek" unicode="&#x2db;" 
d="M638 0q-106 -87 -106 -182q0 -35 16 -60q20 -31 58 -31q37 0 72 13v-84q-43 -24 -95 -24q-75 0 -122 51q-45 48 -45 120q0 75 56 139q30 35 72 58h94z" />
    <glyph glyph-name="caron" unicode="&#x2c7;" 
d="M439 1106l-189 259h150l114 -173l108 173h153l-187 -259h-149z" />
    <glyph glyph-name="Lslash" unicode="&#x141;" horiz-adv-x="889" 
d="M288 715l300 227v-143l-300 -227v-429h563v-143h-724v465l-86 -66v144l86 65v757h161v-650z" />
    <glyph glyph-name="lslash" unicode="&#x142;" horiz-adv-x="369" 
d="M258 834l89 67v-124l-89 -67v-710h-147v613l-89 -67v124l89 67v628h147v-531z" />
    <glyph glyph-name="Scaron" unicode="&#x160;" horiz-adv-x="982" 
d="M868 999h-159q-4 110 -37 165q-57 96 -193 96q-105 0 -167 -56q-66 -59 -66 -167q0 -85 41 -140q39 -52 149 -92l191 -69q114 -40 166 -85q112 -97 112 -283q0 -185 -108 -287q-112 -106 -312 -106q-321 0 -395 257q-22 77 -22 197h167q-2 -36 -2 -56q0 -268 255 -268
q256 0 256 251q0 96 -38 145q-39 50 -164 95l-152 54q-128 46 -186 95q-108 91 -108 267q0 181 111 281q107 97 280 97q138 0 234 -61q142 -91 147 -330zM396 1543l-168 170h163l101 -114l101 114h160l-166 -170h-191z" />
    <glyph glyph-name="scaron" unicode="&#x161;" horiz-adv-x="755" 
d="M687 740h-143q0 81 -25 115q-39 55 -132 55q-165 0 -165 -151q0 -59 29 -90q25 -26 117 -58l132 -47q124 -44 171 -122q36 -59 36 -152q0 -151 -84 -230q-87 -80 -240 -80q-160 0 -246 80q-75 70 -77 215v32h143q-1 -94 27 -137q45 -70 155 -70q97 0 145 54q40 44 40 116
q0 70 -36 108q-24 25 -113 58l-119 43q-116 42 -162 94q-55 63 -55 171q0 146 91 221q79 65 216 65q191 0 259 -126q29 -52 36 -164zM304 1106l-189 259h150l114 -173l108 173h153l-187 -259h-149z" />
    <glyph glyph-name="Zcaron" unicode="&#x17d;" horiz-adv-x="948" 
d="M873 1365v-140l-641 -1082h659v-143h-851v115l646 1107h-578v143h765zM380 1543l-168 170h163l101 -114l101 114h160l-166 -170h-191z" />
    <glyph glyph-name="zcaron" unicode="&#x17e;" horiz-adv-x="683" 
d="M633 1010v-141l-436 -739h462v-130h-636v119l449 761h-403v130h564zM268 1106l-189 259h150l114 -173l108 173h153l-187 -259h-149z" />
    <glyph glyph-name="brokenbar" unicode="&#xa6;" 
d="M439 1365h147v-681h-147v681zM439 314h147v-655h-147v655z" />
    <glyph glyph-name="Eth" unicode="&#xd0;" horiz-adv-x="1050" 
d="M127 647h-75v130h75v588h338q182 0 263 -36q234 -104 234 -640q0 -424 -158 -585q-67 -68 -165 -90q-65 -14 -169 -14h-343v647zM287 647v-517h142q143 0 202 27q91 41 132 192q39 143 39 337q0 192 -37 331q-39 150 -126 192q-53 26 -162 26h-190v-458h287v-130h-287z
" />
    <glyph glyph-name="eth" unicode="&#xf0;" horiz-adv-x="833" 
d="M423 1331l117 102l65 -75l-117 -102q125 -154 186 -300q86 -205 86 -448q0 -528 -344 -528t-344 525t344 525q33 0 73 -7q-51 86 -99 148l-126 -109l-64 75l126 110q-36 39 -79 79l93 91q51 -50 83 -86zM413 911q-106 0 -150 -105q-41 -99 -41 -301q0 -201 41 -300
q44 -105 153 -105t153 105q41 100 41 296q0 209 -41 305q-45 105 -156 105z" />
    <glyph glyph-name="Yacute" unicode="&#xdd;" horiz-adv-x="920" 
d="M532 547v-547h-161v547l-371 818h181l191 -451q49 -114 86 -208q33 85 86 208l196 451h180zM829 1713l-302 -170h-162l162 170h302z" />
    <glyph glyph-name="yacute" unicode="&#xfd;" horiz-adv-x="790" 
d="M638 1010h159l-341 -1070q-48 -149 -101 -203q-62 -65 -182 -65q-62 0 -106 13v122q49 -15 92 -15q116 0 151 161l10 47l-327 1010h165l162 -550q44 -152 81 -299q53 217 76 299zM453 1365h223l-223 -259h-119z" />
    <glyph glyph-name="Thorn" unicode="&#xde;" horiz-adv-x="931" 
d="M288 329v-329h-161v1365h161v-245h192q177 0 262 -67q130 -103 130 -327q0 -208 -117 -316q-88 -81 -251 -81h-216zM288 466h189q113 0 166 51q68 66 68 204q0 139 -68 205q-53 51 -166 51h-189v-511z" />
    <glyph glyph-name="thorn" unicode="&#xfe;" horiz-adv-x="862" 
d="M111 1365h147v-447q87 113 215 113q150 0 226 -117q90 -139 90 -405q0 -262 -91 -403q-78 -120 -228 -120q-124 0 -212 109v-423h-147v1693zM440 912q-48 0 -88 -27.5t-60 -75.5q-45 -101 -45 -301q0 -197 45 -299q45 -103 151 -103q107 0 151 103q45 102 45 296
q0 206 -45 304q-46 103 -154 103z" />
    <glyph glyph-name="minus" unicode="&#x2212;" horiz-adv-x="915" 
d="M831 737v-109h-748v109h748z" />
    <glyph glyph-name="multiply" unicode="&#xd7;" horiz-adv-x="915" 
d="M699 1001l77 -77l-241 -242l241 -241l-77 -77l-241 241l-242 -241l-77 77l241 241l-241 242l77 77l242 -241z" />
    <glyph glyph-name="onesuperior" unicode="&#xb9;" horiz-adv-x="614" 
d="M302 1130h-179v82h33q102 0 138 50q21 30 23 95h98v-811h-113v584z" />
    <glyph glyph-name="twosuperior" unicode="&#xb2;" horiz-adv-x="614" 
d="M544 640v-94h-474q-1 77 16 134q22 75 77 134q28 33 114 98q87 66 113 105q32 45 32 114q0 136 -122 136q-126 0 -126 -157q0 -12 1 -35h-105q-1 25 -1 38q0 106 50 171q60 77 186 77q105 0 166 -62q63 -64 63 -172q0 -84 -40 -146q-35 -53 -138 -133q-98 -76 -132 -120
q-35 -46 -42 -88h362z" />
    <glyph glyph-name="threesuperior" unicode="&#xb3;" horiz-adv-x="614" 
d="M237 926v86q28 -1 42 -1q75 0 105 34t30 101q0 128 -114 128q-73 0 -99 -54q-14 -30 -16 -110h-107q4 108 32 157q55 94 194 94q102 0 161 -53q62 -55 62 -156q0 -61 -25 -106q-19 -34 -82 -70q50 -17 76 -37q60 -46 60 -153t-59 -176q-65 -75 -190 -75q-243 0 -243 261
h109v-21q0 -72 34 -112q34 -41 99 -41q70 0 104 48q33 45 33 111q0 146 -154 146q-17 0 -52 -1z" />
    <glyph glyph-name="onehalf" unicode="&#xbd;" horiz-adv-x="1491" 
d="M302 1130h-179v82h33q102 0 138 50q21 30 23 95h98v-811h-113v584zM1231 1352l-870 -1352h-102l871 1352h101zM1420 94v-94h-474q-1 78 16 134q22 74 77 134q28 32 114 98q87 66 113 104q32 46 32 115q0 136 -122 136q-126 0 -126 -158q0 -12 1 -35h-105q-1 25 -1 38
q0 107 50 172q60 77 185 77q107 0 167 -63q63 -64 63 -172q0 -84 -40 -145q-35 -54 -138 -134q-97 -75 -132 -119q-35 -46 -42 -88h362z" />
    <glyph glyph-name="onequarter" unicode="&#xbc;" horiz-adv-x="1491" 
d="M302 1130h-179v82h33q102 0 138 50q21 30 23 95h98v-811h-113v584zM1231 1352l-870 -1352h-102l871 1352h101zM1254 202h-314v89l313 520h107v-515h82v-94h-82v-202h-106v202zM1254 296v345l-208 -345h208z" />
    <glyph glyph-name="threequarters" unicode="&#xbe;" horiz-adv-x="1491" 
d="M237 926v86q28 -1 42 -1q75 0 105 34t30 101q0 128 -114 128q-73 0 -99 -54q-14 -30 -16 -110h-107q4 108 32 157q55 94 194 94q102 0 161 -53q62 -55 62 -156q0 -61 -25 -106q-19 -34 -82 -70q50 -17 76 -37q60 -46 60 -153t-59 -176q-65 -75 -190 -75q-243 0 -243 261
h109v-21q0 -72 34 -112q34 -41 99 -41q70 0 104 48q33 45 33 111q0 146 -154 146q-17 0 -52 -1zM1231 1352l-870 -1352h-102l871 1352h101zM1254 202h-313v89l312 520h107v-515h82v-94h-82v-202h-106v202zM1254 296v345l-208 -345h208z" />
    <glyph glyph-name="franc" unicode="&#x20a3;" horiz-adv-x="997" 
d="M738 1338v-134h-485v-474h283v-134h-283v-596h-147v1338h632zM597 730h141v-111q47 72 106 102q47 22 132 21v-148q-26 4 -49 4q-93 0 -138 -47q-51 -54 -51 -193v-358h-141v730z" />
    <glyph glyph-name="Gbreve" unicode="&#x11e;" horiz-adv-x="1039" 
d="M710 1726h115q-23 -76 -73 -123q-84 -80 -219 -80q-147 0 -231 92q-41 44 -61 111h115q57 -91 177 -91t177 91zM501 707h438v-707h-120q-7 65 -19 126q-48 -63 -88 -93q-79 -58 -193 -58q-227 0 -338 199q-91 162 -91 524q0 377 109 531q115 161 341 161q237 0 334 -178
q51 -95 57 -251h-161q-8 299 -236 299q-162 0 -232 -163q-51 -120 -51 -407q0 -290 59 -424q67 -155 223 -155q170 0 227 184q27 88 29 275h-288v137z" />
    <glyph glyph-name="gbreve" unicode="&#x11f;" horiz-adv-x="860" 
d="M585 1363h105q-22 -93 -74 -153q-86 -100 -227 -100q-152 0 -239 115q-43 56 -62 138h105q64 -141 196 -141q133 0 196 141zM612 1010h137v-914q0 -154 -18 -216q-60 -208 -328 -208q-178 0 -253 92q-40 49 -52 142h141q21 -125 166 -125q106 0 156 54q51 55 51 212v49
q-93 -110 -221 -110q-69 0 -129.5 27.5t-97.5 76.5q-93 122 -93 404q0 223 44 338q76 199 270 199q86 0 147 -43q39 -28 80 -90v112zM414 911q-45 0 -85.5 -25.5t-60.5 -66.5q-47 -95 -47 -311q0 -214 47 -310q23 -47 72 -73q36 -19 77 -19q46 0 87 25t61 67q47 96 47 305
q0 223 -47 316q-45 92 -151 92z" />
    <glyph glyph-name="Idot" unicode="&#x130;" horiz-adv-x="415" 
d="M282 1713v-177h-150v177h150zM288 1365v-1365h-161v1365h161z" />
    <glyph glyph-name="Scedilla" unicode="&#x15e;" horiz-adv-x="982" 
d="M535 -23l-45 -91q27 6 47 6q54 0 87 -32q37 -37 37 -94q0 -66 -49 -113q-43 -42 -115 -42q-75 0 -152 42l20 62q61 -38 115 -38q26 0 47 17q26 22 26 63q0 37 -23 58q-18 16 -46 16q-25 0 -55 -13l-27 29l60 129q-394 22 -385 453h167q-2 -36 -2 -56q0 -268 255 -268
q256 0 256 251q0 96 -38 145q-39 50 -164 95l-152 54q-128 46 -186 95q-108 91 -108 267q0 181 111 281q107 97 280 97q138 0 234 -61q142 -91 147 -330h-159q-4 110 -37 165q-57 96 -193 96q-105 0 -167 -56q-66 -59 -66 -167q0 -85 41 -140q39 -52 149 -92l191 -69
q114 -40 166 -85q112 -96 112 -283q0 -245 -187 -343q-77 -40 -192 -48z" />
    <glyph glyph-name="scedilla" unicode="&#x15f;" horiz-adv-x="755" 
d="M415 -20l-46 -94q26 6 47 6q54 0 87 -32q37 -37 37 -94q0 -66 -49 -113q-43 -42 -116 -42q-74 0 -152 42l21 62q61 -38 115 -38q26 0 47 17q26 22 26 63q0 36 -23 58q-18 16 -46 16q-25 0 -55 -14l-27 30l62 134q-184 16 -249 137q-34 66 -33 189h143q-1 -94 27 -138
q44 -70 155 -70q97 0 145 54q40 45 40 117q0 70 -36 108q-24 25 -113 58l-119 43q-116 42 -162 94q-55 63 -55 171q0 146 91 221q79 65 216 65q191 0 259 -126q29 -52 36 -164h-143q0 81 -25 115q-39 55 -132 55q-165 0 -165 -151q0 -59 29 -90q25 -26 117 -58l132 -47
q124 -44 171 -122q36 -59 36 -152q0 -285 -293 -310z" />
    <glyph glyph-name="Cacute" unicode="&#x106;" horiz-adv-x="985" 
d="M862 1713l-302 -170h-162l162 170h302zM912 964h-156q-17 296 -236 296q-156 0 -222 -165q-48 -120 -48 -360q0 -323 52 -459q64 -171 219 -171q242 0 248 391h158q-22 -521 -409 -521q-236 0 -340 200q-89 172 -89 522q0 396 125 552q114 141 314 141q236 0 334 -207
q44 -92 50 -219z" />
    <glyph glyph-name="cacute" unicode="&#x107;" horiz-adv-x="788" 
d="M478 1365h223l-223 -259h-119zM741 694h-140q-4 217 -174 217q-112 0 -156 -87q-49 -95 -49 -309q0 -232 51 -330q44 -85 153 -85q124 0 163 119q16 52 18 143l142 -3q0 -136 -46 -223q-82 -156 -279 -156q-88 0 -159 35.5t-111 100.5q-82 131 -82 402q0 250 80 376
q87 137 277 137q193 0 271 -149q38 -72 41 -188z" />
    <glyph glyph-name="Ccaron" unicode="&#x10c;" horiz-adv-x="985" 
d="M426 1543l-168 170h163l101 -114l101 114h160l-166 -170h-191zM912 964h-156q-17 296 -236 296q-156 0 -222 -165q-48 -120 -48 -360q0 -323 52 -459q64 -171 219 -171q242 0 248 391h158q-22 -521 -409 -521q-236 0 -340 200q-89 172 -89 522q0 396 125 552
q114 141 314 141q236 0 334 -207q44 -92 50 -219z" />
    <glyph glyph-name="ccaron" unicode="&#x10d;" horiz-adv-x="788" 
d="M348 1106l-189 259h150l114 -173l108 173h153l-187 -259h-149zM741 694h-140q-4 217 -174 217q-112 0 -156 -87q-49 -95 -49 -309q0 -232 51 -330q44 -85 153 -85q124 0 163 119q16 52 18 143l142 -3q0 -136 -46 -223q-82 -156 -279 -156q-88 0 -159 35.5t-111 100.5
q-82 131 -82 402q0 250 80 376q87 137 277 137q193 0 271 -149q38 -72 41 -188z" />
    <glyph glyph-name="dmacron" unicode="&#x111;" horiz-adv-x="863" 
d="M752 1242h97v-98h-97v-1144h-137v119q-80 -133 -223 -133q-151 0 -228 118q-92 141 -92 410q0 252 78 385q42 70 120 106q56 26 123 26q79 0 140 -41q32 -23 72 -71v225h-248v98h248v123h147v-123zM415 912q-47 0 -87 -27.5t-62 -74.5q-44 -98 -44 -301q0 -202 44 -301
q46 -102 153 -102q106 0 152 102q44 98 44 296q0 212 -44 306q-48 102 -156 102z" />
    <glyph glyph-name="nbspace" unicode="&#xa0;" horiz-adv-x="382" 
 />
    <glyph glyph-name="sfthyphen" unicode="&#xad;" horiz-adv-x="382" 
d="M382 605v-143h-382v143h382z" />
    <glyph glyph-name="overscore" unicode="&#xaf;" 
d="M0 1766h1024v-132h-1024v132z" />
    <glyph glyph-name="middot" unicode="&#xb7;" horiz-adv-x="393" 
d="M290 632v-198h-188v198h188z" />
    <glyph glyph-name="glyph262" 
d="M418 1543l-168 170h163l101 -114l101 114h160l-166 -170h-191z" />
    <glyph glyph-name="glyph263" 
d="M472 1713v-177h-150v177h150zM702 1713v-177h-150v177h150z" />
    <glyph glyph-name="glyph264" 
d="M689 1726h115q-23 -76 -73 -123q-84 -80 -219 -80q-147 0 -231 92q-41 44 -61 111h115q57 -91 177 -91t177 91z" />
    <glyph glyph-name="glyph265" 
d="M144 1713h302l162 -170h-162z" />
    <glyph glyph-name="glyph266" 
d="M881 1713l-302 -170h-162l162 170h302z" />
    <glyph glyph-name="glyph267" 
d="M426 1713v-177h-150v177h150zM747 1713v-177h-150v177h150z" />
    <glyph glyph-name="glyph268" 
d="M606 1713l169 -170h-164l-101 114l-101 -114h-159l166 170h190z" />
    <glyph glyph-name="glyph269" 
d="M709 1716h98q-6 -70 -36 -116q-45 -67 -133 -67q-54 0 -175 47q-44 17 -70 17q-58 0 -73 -64h-103q30 184 174 184q50 0 178 -48q44 -17 73 -17q55 0 67 64z" />
    <glyph glyph-name="glyph270" 
d="M478 1365v-184h-141v184h141zM687 1365v-184h-139v184h139z" />
    <glyph glyph-name="glyph271" 
d="M587 1713v-177h-150v177h150z" />
    <glyph glyph-name="glyph272" horiz-adv-x="382" 
 />
    </font>
</defs>
</svg>
