<svg xmlns="http://www.w3.org/2000/svg" width="104" height="82" viewBox="0 0 104 82"><g><g><path fill="#1a75a5" d="M73.707 64.581c.342.83-.055 1.78-.886 2.122L52.51 75.07c-1.563.644-4.425.142-5.671-.994L35.174 63.34a1.622 1.622 0 0 1-.498-1.48 1.629 1.629 0 0 1 .983-1.217l58.246-23.995a1.622 1.622 0 1 1 2.139 2.08l-6.792 17.748c-.808 2.11-3.548 4.92-5.64 5.782l-4.771 1.965a1.626 1.626 0 0 1-2.124-.881 1.626 1.626 0 0 1 .886-2.122l4.772-1.965c1.242-.512 3.358-2.681 3.837-3.934l5.447-14.235-23.622 9.731zm-34.451-1.907l9.785 9.006c.359.297 1.785.547 2.236.386l18.802-7.746-5.052-12.263zM4.638 40.835l3.598-1.481c-2.364-7.89 1.616-16.474 9.407-19.683 8.298-3.418 17.824.536 21.235 8.816 3.41 8.279-.566 17.796-8.864 21.215-7.79 3.21-16.662-.08-20.541-7.346l-3.598 1.482c-2.061.85-2.906 3.561-1.883 6.046l2.419 5.87c5.164-1.277 10.635 1.377 12.716 6.43.24.584.427 1.183.563 1.792l6.502-.454c2.247-.157 5.195.868 6.857 2.383l11.593 10.571c2.19 1.997 6.36 2.729 9.105 1.598L84.849 65.26c2.91-1.2 6.32-4.693 7.443-7.63l7.817-20.428c.487-1.274.459-3.582-.06-4.842l-7.765-18.85c-1.024-2.484-3.882-3.67-6.371-2.644l-2.821 1.162c2.364 7.89-1.617 16.473-9.407 19.683-7.79 3.21-16.663-.08-20.542-7.346l-9.132 3.762a1.625 1.625 0 0 1-2.123-.881 1.626 1.626 0 0 1 .886-2.122l9.132-3.762c-2.364-7.889 1.617-16.473 9.407-19.682 7.79-3.21 16.663.08 20.542 7.345l2.82-1.162c4.15-1.71 8.913.268 10.618 4.408l7.766 18.849c.83 2.018.87 5.197.09 7.238L95.33 58.786c-1.443 3.774-5.504 7.937-9.245 9.478L54.984 81.077c-3.911 1.61-9.419.645-12.539-2.2L30.852 68.306c-.988-.9-3.103-1.636-4.439-1.543l-8.003.56c-5.764.401-12.24-3.609-14.437-8.94l-2.99-7.26c-1.706-4.14-.066-8.755 3.655-10.288zm24.14 5.864c6.638-2.735 9.819-10.349 7.09-16.972-2.728-6.624-10.35-9.788-16.988-7.053-6.639 2.735-9.82 10.349-7.091 16.972 2.729 6.624 10.35 9.787 16.988 7.053zM62.55 4.684c-6.638 2.735-9.82 10.349-7.09 16.972 2.728 6.624 10.349 9.787 16.987 7.053 6.64-2.736 9.82-10.35 7.092-16.973-2.73-6.623-10.35-9.787-16.989-7.052zM16.332 64.013a7.803 7.803 0 0 0-.215-.59c-1.37-3.326-4.833-5.171-8.249-4.65 1.846 2.728 5.195 4.8 8.464 5.24zm54.054-40.31c-3.873 1.596-8.319-.25-9.91-4.114-1.592-3.863.264-8.305 4.136-9.9 3.873-1.595 8.318.25 9.91 4.114 1.592 3.864-.264 8.305-4.136 9.9zm-4.537-11.01a4.34 4.34 0 0 0-2.363 5.656 4.34 4.34 0 0 0 8.026-3.306 4.34 4.34 0 0 0-5.663-2.35zM20.942 27.678c3.872-1.595 8.318.25 9.91 4.114 1.591 3.864-.264 8.305-4.137 9.9-3.872 1.596-8.318-.25-9.91-4.113-1.591-3.864.264-8.305 4.137-9.9zm4.536 11.011a4.34 4.34 0 0 0 2.364-5.657 4.34 4.34 0 0 0-5.663-2.35 4.34 4.34 0 0 0-2.364 5.657 4.34 4.34 0 0 0 5.663 2.35z"/></g></g></svg>