<svg xmlns="http://www.w3.org/2000/svg" width="73" height="79" viewBox="0 0 73 79"><g><g><path fill="#1a75a5" d="M72.964 28.758l-3.527 46.626C69.284 77.411 67.58 79 65.558 79H7.441c-2.021 0-3.725-1.589-3.879-3.616L.036 28.758C-.45 22.334 3.928 16.58 10.22 15.375l10.077-1.932c2.547-.488 4.395-2.735 4.395-5.342V3.912c0-2.157 1.744-3.912 3.89-3.912h15.836c2.145 0 3.89 1.755 3.89 3.912v4.19c0 2.607 1.849 4.853 4.395 5.341l10.077 1.932c6.292 1.206 10.67 6.959 10.184 13.383zm-10.912-9.54l-10.077-1.93c-4.38-.84-7.558-4.703-7.558-9.187V3.912H28.581l.001 4.19c0 4.483-3.178 8.346-7.557 9.185L10.948 19.22c-4.345.833-7.368 4.806-7.032 9.242l3.526 46.626h8.5l1.878-9.042L11.264 37.2a1.957 1.957 0 0 1 1.464-2.343 1.945 1.945 0 0 1 2.33 1.472l6.65 29.263c.062.275.065.56.008.836l-1.8 8.66h33.167l-1.8-8.66a1.97 1.97 0 0 1 .008-.836l6.65-29.263a1.945 1.945 0 0 1 2.33-1.472 1.957 1.957 0 0 1 1.464 2.343l-6.556 28.846 1.879 9.041h8.5l3.526-46.625c.336-4.436-2.688-8.41-7.032-9.242zm-27.109 5.687c0-.864.697-1.565 1.557-1.565s1.556.7 1.556 1.565v32.19l6.662-6.41L47.66 53.4 36.493 64.098 25.326 53.4l2.847-2.707 6.77 6.434z"/></g></g></svg>