<svg xmlns="http://www.w3.org/2000/svg" width="17" height="27" viewBox="0 0 17 27"><g><g><path fill="#34b0f0" d="M14.506 2.5A8.513 8.513 0 0 1 17 8.53c0 2.384-1.53 5.257-2.864 7.769-.41.762-.799 1.495-1.11 2.15l-3.907 8.16a.685.685 0 0 1-1.237 0l-3.907-8.16c-.312-.655-.702-1.388-1.101-2.15C1.529 13.788 0 10.914 0 8.529c0-2.354.954-4.485 2.494-6.028a8.465 8.465 0 0 1 12.012 0zm-3.059 3.07a4.178 4.178 0 0 1 1.218 2.96 4.174 4.174 0 0 1-1.218 2.952 4.148 4.148 0 0 1-2.942 1.22c-1.15 0-2.192-.469-2.952-1.22A4.173 4.173 0 0 1 4.336 8.53c0-1.163.467-2.208 1.217-2.96a4.187 4.187 0 0 1 2.952-1.222c1.15 0 2.192.47 2.942 1.221zm-2.942.156a2.77 2.77 0 0 0-1.977.82 2.787 2.787 0 0 0-.819 1.985c0 .772.312 1.466.819 1.973a2.77 2.77 0 0 0 1.977.821c.77 0 1.462-.313 1.968-.82a2.78 2.78 0 0 0 .818-1.974c0-.782-.311-1.476-.818-1.984a2.764 2.764 0 0 0-1.968-.82zm0-4.349c-1.968 0-3.75.802-5.037 2.102A7.106 7.106 0 0 0 1.373 8.53c0 2.051 1.442 4.749 2.709 7.123.409.772.799 1.515 1.13 2.199l3.293 6.87 3.283-6.87c.331-.684.721-1.427 1.13-2.199 1.266-2.374 2.708-5.072 2.708-7.123a7.132 7.132 0 0 0-2.084-5.052 7.08 7.08 0 0 0-5.037-2.102z"/></g></g></svg>