<svg xmlns="http://www.w3.org/2000/svg" width="87" height="98" viewBox="0 0 87 98"><g><g><path fill="#1a75a5" d="M86.938 59.724c0 6.31-5.122 11.442-11.417 11.442-.063 0-.125-.002-.187-.003a31.694 31.694 0 0 1-1.982 7.05 1.452 1.452 0 1 1-2.686-1.107 28.902 28.902 0 0 0 2.167-11.037V51.258c-18.058-.226-29.887-4.206-36.681-7.556-4.218-2.08-7.07-4.168-8.808-5.656-.626 2.323-1.941 4.664-3.854 6.81-2.36 2.644-5.376 4.74-8.583 5.98V66.07c0 16.002 12.993 29.02 28.962 29.02 1.854 0 3.705-.176 5.503-.523 7.678-1.479 14.535-6.116 18.813-12.723a1.45 1.45 0 0 1 2.01-.429c.672.438.864 1.339.427 2.013-4.707 7.268-12.252 12.37-20.701 13.997a32.001 32.001 0 0 1-6.052.576c-15.856 0-29.042-11.665-31.466-26.88a11.62 11.62 0 0 1-.984.046C5.123 71.166 0 66.033 0 59.724c0-6.308 5.123-11.44 11.42-11.44.125 0 .34.005.583.014v-2.982c0-7.063 2.254-13.757 6.52-19.358a1.45 1.45 0 0 1 2.036-.274c.638.488.76 1.401.273 2.04-3.876 5.089-5.925 11.172-5.925 17.591v2.359a20.109 20.109 0 0 0 6.417-4.759c2.277-2.553 3.531-5.36 3.531-7.903a1.45 1.45 0 1 1 2.58-.918c.025.032 2.998 3.584 10.208 7.099 11.532 5.621 25.24 7.023 35.19 7.154v-3.031c0-2.669-.36-5.295-1.07-7.834l-8.739 7.051a3.517 3.517 0 0 1-2.214.793 3.525 3.525 0 0 1-2.075-.682 3.51 3.51 0 0 1-1.235-4.118l4.244-11.286h-4.65a3.547 3.547 0 0 1-3.027-1.68 3.563 3.563 0 0 1-.182-3.462l2.426-4.994a28.639 28.639 0 0 0-6.938-2.287 29.089 29.089 0 0 0-5.503-.524 28.923 28.923 0 0 0-18.84 6.98 1.447 1.447 0 0 1-2.048-.157 1.457 1.457 0 0 1 .157-2.052 31.827 31.827 0 0 1 20.73-7.681c2.038 0 4.075.194 6.053.575a31.571 31.571 0 0 1 7.662 2.526L64.417 2.42A4.32 4.32 0 0 1 68.278 0H82.29c1.545 0 2.932.8 3.71 2.138a4.268 4.268 0 0 1 .025 4.288L78.443 19.82h4.924c1.559 0 2.901.952 3.42 2.425a3.597 3.597 0 0 1-1.146 4.037l-11.437 9.23a31.902 31.902 0 0 1 1.534 9.802v2.974c6.196.117 11.2 5.2 11.2 11.435zM83.82 24.016a.694.694 0 0 0 .228-.802.692.692 0 0 0-.68-.483h-7.418c-.517 0-.995-.275-1.255-.722-.26-.448-.263-1-.008-1.45l8.812-15.57a1.37 1.37 0 0 0-.008-1.387 1.365 1.365 0 0 0-1.2-.692H68.278c-.528 0-1.018.308-1.249.783l-10.533 21.68a.649.649 0 0 0 .034.644.646.646 0 0 0 .564.312h6.75c.476 0 .923.235 1.194.628.271.393.333.894.165 1.341l-4.985 13.254c-.147.393.075.628.22.734.146.105.439.243.765-.02zM12.078 68.227a32.229 32.229 0 0 1-.075-2.158v-7.073c-.981-.047-2.361.173-2.984 1.608a1.453 1.453 0 1 1-2.664-1.16c1.177-2.712 3.663-3.397 5.648-3.354v-4.88c-.262-.01-.478-.016-.583-.016-4.695 0-8.515 3.827-8.515 8.53 0 4.704 3.82 8.532 8.515 8.532.22 0 .439-.012.658-.029zm71.956-8.503c0-4.63-3.702-8.408-8.296-8.524v4.89c1.985-.042 4.47.643 5.646 3.354a1.456 1.456 0 0 1-1.33 2.036c-.562 0-1.096-.328-1.334-.876-.622-1.435-2-1.655-2.982-1.608v7.073c0 .732-.026 1.46-.074 2.183 4.628-.077 8.37-3.872 8.37-8.528zM34.47 79.162a1.457 1.457 0 0 1 0-2.058c5.183-5.193 13.616-5.193 18.799 0a1.457 1.457 0 0 1-1.027 2.485c-.372 0-.744-.143-1.027-.427-4.05-4.058-10.64-4.058-14.691 0a1.45 1.45 0 0 1-2.054 0zM27.69 64.011l5.371-1.657-3.46-3.468a1.457 1.457 0 0 1 0-2.058 1.45 1.45 0 0 1 2.053 0l5.167 5.178a1.457 1.457 0 0 1-.6 2.42l-7.677 2.367a1.453 1.453 0 0 1-1.815-.963 1.456 1.456 0 0 1 .961-1.82zm31.297 2.782l-7.677-2.367a1.454 1.454 0 0 1-.6-2.42l5.168-5.177a1.45 1.45 0 0 1 2.053 0c.568.568.568 1.49 0 2.057l-3.46 3.469 5.37 1.656a1.456 1.456 0 0 1-.854 2.782zM1.914 7.343a1.458 1.458 0 0 1 .392-2.02 1.45 1.45 0 0 1 2.016.392l8.17 12.13a1.459 1.459 0 0 1-.877 2.232l-5.629 1.301 4.74 7.124a1.457 1.457 0 0 1-1.207 2.263c-.47 0-.93-.228-1.21-.649l-5.905-8.875a1.458 1.458 0 0 1 .882-2.225l5.616-1.3zm14.827 3.196c-.189-.439-.15-.943.103-1.348a1.45 1.45 0 0 1 1.165-.68l3.824-.173-2.152-4.934a1.457 1.457 0 0 1 .75-1.917 1.451 1.451 0 0 1 1.912.751l2.998 6.875c.191.44.155.945-.098 1.352-.253.407-.69.663-1.168.685l-3.836.173 2.342 5.456a1.457 1.457 0 0 1-1.333 2.03c-.563 0-1.099-.33-1.335-.88z"/></g></g></svg>