<svg xmlns="http://www.w3.org/2000/svg" width="78" height="93" viewBox="0 0 78 93"><g><g><path fill="#1a75a5" d="M76.655 38.897l-.094.193c-.64 1.32-.98 2.8-.98 4.277v8.818c0 1.684-.48 3.317-1.388 4.721l-2.832 4.378c-1.98 3.06-5.302 4.888-8.886 4.888h-1.99l5.776 24.633a1.781 1.781 0 0 1-.342 1.518 1.8 1.8 0 0 1-1.408.676H10.59a1.8 1.8 0 0 1-1.43-.703 1.78 1.78 0 0 1-.303-1.557l5.757-20.914a21.376 21.376 0 0 0 .102-10.943l-.645-2.526a13.131 13.131 0 0 0-3.895-6.506c-3.488-3.163-5.488-7.718-5.488-12.497v-9.427C4.688 12.527 16.87 0 31.845 0h22.242C65.94 0 75.582 9.909 75.582 22.09v1.41l1.76 5.443a13.316 13.316 0 0 1-.687 9.954zM34.035 82.73a.404.404 0 0 0-.367-.436l-4.86-.423-.792-.069-.704-.061a.398.398 0 0 0-.296.092.395.395 0 0 0-.142.273l-.557 6.326a.404.404 0 0 0 .368.435l6.357.554a.409.409 0 0 0 .295-.093.394.394 0 0 0 .143-.273zm.062-10.957a.205.205 0 0 0-.049-.155.207.207 0 0 0-.144-.075l-.654-.056-2.902-.253-1.392-.122a.212.212 0 0 0-.23.192l-.295 3.352v.004l-.295 3.35a.205.205 0 0 0 .049.155c.037.044.086.069.144.074l4.155.362.793.069a.2.2 0 0 0 .155-.049.203.203 0 0 0 .076-.144l.294-3.352zm.063-10.979l-3.581-.312-.626 7.127 1.544.134 2.037.178.313-3.564zm39.76-30.756l-1.847-5.71a1.777 1.777 0 0 1-.086-.547v-1.692c0-10.208-8.03-18.514-17.9-18.514H31.845C18.853 3.575 8.282 14.5 8.282 27.926v9.427c0 3.775 1.573 7.366 4.315 9.853a16.693 16.693 0 0 1 4.958 8.269L18.2 58a24.942 24.942 0 0 1-.12 12.77l-5.134 18.651h9.894c-.104-.42-.144-.858-.104-1.302l.121-1.38-1.79-.157a1.791 1.791 0 0 1-1.634-1.937 1.794 1.794 0 0 1 1.947-1.626l1.79.156.122-1.381a3.946 3.946 0 0 1 1.405-2.693 3.766 3.766 0 0 1-.143-1.403l.138-1.572-1.79-.156a1.79 1.79 0 0 1-1.634-1.937 1.795 1.795 0 0 1 1.947-1.626l1.79.156.139-1.571a3.767 3.767 0 0 1 1.31-2.537 3.54 3.54 0 0 1-.085-1.13l.159-1.811-1.791-.156a1.79 1.79 0 0 1-1.634-1.937 1.794 1.794 0 0 1 1.947-1.626l1.791.156.16-1.81c.082-.945.53-1.8 1.26-2.41.728-.609 1.652-.9 2.602-.816l.029.002.125-1.421a1.792 1.792 0 0 1 1.947-1.626 1.79 1.79 0 0 1 1.633 1.937l-.124 1.422.029.003a3.547 3.547 0 0 1 2.42 1.253c.613.726.904 1.646.821 2.59l-.159 1.81 1.79.157c.99.086 1.721.953 1.635 1.937a1.794 1.794 0 0 1-1.948 1.626l-1.79-.156-.16 1.81a3.531 3.531 0 0 1-.28 1.098c.633.769.934 1.734.847 2.726l-.138 1.57 1.79.157a1.79 1.79 0 0 1 1.634 1.937 1.794 1.794 0 0 1-1.947 1.626l-1.79-.156-.139 1.571a3.755 3.755 0 0 1-.385 1.36c.653.78 1.01 1.805.913 2.893l-.121 1.38 1.79.157c.99.086 1.72.954 1.634 1.938a1.794 1.794 0 0 1-1.947 1.625l-1.79-.156-.122 1.381-.007.055h25.192L56.47 64.791a1.783 1.783 0 0 1 .343-1.519c.34-.427.86-.676 1.408-.676h4.255c2.356 0 4.548-1.214 5.863-3.248l2.832-4.378c.534-.825.817-1.79.817-2.785v-8.818c0-2.013.462-4.03 1.336-5.832l.094-.192a9.901 9.901 0 0 0 .502-7.305zM10.783 64.384c0 .988-.804 1.788-1.797 1.788h-7.19c-.992 0-1.797-.8-1.797-1.788s.805-1.788 1.797-1.788h7.19c.992 0 1.797.8 1.797 1.788zm-.53-5.86c-.35.346-.809.52-1.267.52-.462 0-.924-.177-1.275-.529l-3.595-3.601c-.7-.7-.696-1.833.009-2.53a1.803 1.803 0 0 1 2.542.009l3.594 3.601c.7.7.696 1.833-.008 2.53zm.004 14.279L6.663 76.38a1.8 1.8 0 0 1-1.27.524c-.46 0-.92-.175-1.272-.524a1.783 1.783 0 0 1 0-2.53l3.595-3.577a1.804 1.804 0 0 1 2.542 0c.702.699.702 1.831 0 2.53z"/></g></g></svg>