<svg xmlns="http://www.w3.org/2000/svg" width="16" height="19" viewBox="0 0 16 19"><g><g><path fill="#34b0f0" d="M16 16.335s-.092.734-.887 1.407c-.795.672-1.743 1.315-3.212 1.254-1.468-.062-5.321-3.58-7.37-5.965C2.48 10.645-.12 5.475.003 3.854.126 2.232 2.114.122 3.49 0c.887.274 2.325 4.404 2.356 5.475-.092.459-.734.306-1.316.765-.182.144-.825.734-.825 1.468 0 .735 1.651 2.937 2.263 3.732.612.795 2.539 3.15 3.425 3.029.887-.123 1.01-.933 1.53-1.408.703-.642 4.251 2.202 5.077 3.274z"/></g></g></svg>