<?xml version="1.0" encoding="utf-8"?>
<!-- Generator: Adobe Illustrator 17.0.0, SVG Export Plug-In . SVG Version: 6.00 Build 0)  -->
<!DOCTYPE svg PUBLIC "-//W3C//DTD SVG 1.1//EN" "http://www.w3.org/Graphics/SVG/1.1/DTD/svg11.dtd">
<svg version="1.1" id="Shape_17_1_" xmlns="http://www.w3.org/2000/svg" xmlns:xlink="http://www.w3.org/1999/xlink" x="0px"
	 y="0px" width="72px" height="51px" viewBox="0 0 72 51" enable-background="new 0 0 72 51" xml:space="preserve">
<g id="Shape_17">
	<g>
		<path fill-rule="evenodd" clip-rule="evenodd" fill="#F2B600" d="M18.45,1.003c-3.519,0-6.511,1.162-8.973,3.486
			c-2.464,2.323-3.695,5.034-3.695,8.133c0,2.776,0.96,5.132,2.879,7.068c1.919,1.936,4.223,2.905,6.91,2.905
			c1.407,0,2.815-0.257,4.223-0.775c1.406-0.516,2.431-0.775,3.071-0.775c0.831,0,1.599,0.452,2.303,1.355
			c0.639,0.905,0.96,2.26,0.96,4.067c0,3.938-1.008,7.407-3.023,10.408c-2.015,3.001-6.255,6.342-12.716,10.021v4.066
			c7.805-2.324,13.868-6.293,18.187-11.909c4.319-5.616,6.478-11.812,6.478-18.59c0-5.615-1.712-10.263-5.134-13.942
			C26.495,2.843,22.672,1.003,18.45,1.003z M65.841,6.667c-3.455-3.776-7.358-5.664-11.708-5.664c-3.455,0-6.367,1.13-8.733,3.389
			c-2.368,2.26-3.551,4.938-3.551,8.036c0,2.776,0.975,5.165,2.927,7.165c1.951,2.001,4.238,3.001,6.862,3.001
			c1.087,0,2.366-0.257,3.839-0.775c1.407-0.516,2.527-0.775,3.359-0.775c0.768,0,1.471,0.421,2.111,1.259
			c0.639,0.905,0.96,2.486,0.96,4.744c0,3.809-1.233,7.343-3.695,10.602c-2.464,3.26-6.478,6.342-12.044,9.247v4.066
			c8.062-2.646,14.219-6.761,18.475-12.345c4.254-5.583,6.382-11.602,6.382-18.057C71.023,15.075,69.296,10.443,65.841,6.667z"/>
	</g>
</g>
</svg>
