<?xml version="1.0" encoding="utf-8"?>
<!-- Generator: Adobe Illustrator 17.0.0, SVG Export Plug-In . SVG Version: 6.00 Build 0)  -->
<!DOCTYPE svg PUBLIC "-//W3C//DTD SVG 1.1//EN" "http://www.w3.org/Graphics/SVG/1.1/DTD/svg11.dtd">
<svg version="1.1" id="Shape_17_1_" xmlns="http://www.w3.org/2000/svg" xmlns:xlink="http://www.w3.org/1999/xlink" x="0px"
	 y="0px" width="71px" height="59px" viewBox="0 0 71 59" enable-background="new 0 0 71 59" xml:space="preserve">
<g id="Shape_17">
	<g>
		<path fill-rule="evenodd" clip-rule="evenodd" fill="#F2B600" d="M19.38,28.372c-1.152,0-2.432,0.242-3.839,0.726
			c-1.408,0.484-2.528,0.727-3.359,0.727c-0.832,0-1.535-0.451-2.111-1.356c-0.64-0.838-0.96-2.387-0.96-4.648
			c0-3.808,1.215-7.325,3.647-10.554c2.431-3.227,6.462-6.325,12.092-9.295V0.003C16.788,2.651,10.63,6.766,6.375,12.348
			C2.155,17.885,0.035,23.852,0,30.245v0.326c0.035,5.413,1.756,9.975,5.176,13.68c3.455,3.744,7.325,5.616,11.613,5.616
			c3.518,0,6.462-1.113,8.829-3.34c2.366-2.227,3.551-4.89,3.551-7.988c0-2.839-0.976-5.244-2.927-7.213
			C24.289,29.357,22.002,28.372,19.38,28.372z M62.308,31.228c-1.952-1.903-4.239-2.856-6.862-2.856
			c-1.408,0-2.816,0.258-4.223,0.775c-1.408,0.517-2.464,0.775-3.167,0.775c-0.768,0-1.504-0.451-2.207-1.356
			c-0.705-0.903-1.056-2.259-1.056-4.067c0-4.001,1.023-7.487,3.071-10.457c2.047-2.968,6.301-6.325,12.764-10.07V0.293
			c-7.87,2.324-13.949,6.279-18.235,11.861c-4.287,5.584-6.43,11.764-6.43,18.541c0,5.487,1.694,10.07,5.086,13.749
			c3.391,3.679,7.198,5.519,11.421,5.519c3.582,0,6.606-1.162,9.069-3.485c2.462-2.324,3.695-5.067,3.695-8.23
			C65.235,35.473,64.259,33.133,62.308,31.228z"/>
	</g>
</g>
</svg>
