<svg xmlns="http://www.w3.org/2000/svg" width="101" height="76" viewBox="0 0 101 76"><g><g><path fill="#1a75a5" d="M86.798 63.807a5.032 5.032 0 0 1-5.04-4.833c-.018-.48-.063-.743-.098-.88-.461-.046-1.547.141-3.241.55-2.664.642-4.843.314-6.481-.97-1.201-.942-1.843-2.201-2.186-3.299a27.508 27.508 0 0 1-2.947 2.335c-.929.643-1.87 1.073-2.814 1.29v1.883c0 2.116-1.727 3.836-3.852 3.836H58.05c-.37 0-.74.053-1.098.153l-6.484 1.845c-.123.485-.45.927-.894 1.15-.237.119-.5.174-.762.174-.362 0-.723-.11-1.02-.328-1.091-.668-10.33-4.597-15.104-.475-.896.973-2.038 1.524-3.24 1.555-1.262.032-3.37.228-5.6.436-3.458.32-7.252.672-10.153.672-1.13 0-2.123-.054-2.911-.183-1.486-.245-2.593-.833-3.292-1.752-1.594-2.099-.77-5.558.972-7.023.794-.667 1.827-1.056 3.157-1.188.842-.083 2.394-.174 4.194-.28 3.48-.203 8.246-.483 9.789-.848.468-.11.97-.328 1.63-.701.79-.45 1.686-.292 2.533.08 1.022-.567 2.228-.93 3.243-1.236.47-.14.89-.263 1.192-.387 2.335-.97 4.016-1.856 5.452-2.874.266-.188.512-.411.751-.677.57-.64 1.03-1.456 1.514-2.318.29-.519.582-1.037.904-1.536.348-.54 1.052-.877 1.694-.803.371.043.844.098 1.542 1.085.394-.08.797-.11 1.206-.09a7.582 7.582 0 0 1 7.465-6.25c.876 0 1.736.158 2.57.468a7.642 7.642 0 0 1 2.272-1l.94-.244c.067-.163.145-.31.225-.442.763-1.248 2.266-1.768 3.459-1.982.187-1.99.747-3.853 1.672-5.565-3.98-4.705-.917-13.222-.194-15.04V3.36l-3.333-.006c.041 1.877.021 5.129-.014 10.92-.017 2.915-.033 5.32-.021 5.805.116 4.616-1.072 8.332-2.374 11.66-.548 1.4-1.151 2.579-1.84 3.6-3.876 5.747-9.412 7.293-14.766 8.789-2.782.778-5.41 1.512-7.85 2.807-1.038.552-2.06 1.122-3.077 1.69-3.795 2.12-7.718 4.313-12.299 5.313-4.65 1.012-9.188 2.294-13.813 3.625-2.192.63-2.662 1.795-2.829 2.738-.11.628-.118 2.346-.022 5.108.05 1.462.583 2.935 1.46 4.042 1.972 2.486 6.427 3.116 9.59 2.282a13.6 13.6 0 0 1 3.868-.57c1.244 0 2.472.18 3.65.537 3.513 1.065 7.261 1.016 10.804.876 5.044-.202 10.131-1.269 15.12-3.172 5.782-2.205 10.496-3.564 15.29-4.402 5.262-.92 9.598-1.093 13.634-.545 1.465.2 2.89.525 4.27.84 1.42.324 2.762.631 4.131.806 3.721.482 6.63.125 8.895-1.087 2.433-1.304 3.352-5.395 3.403-8.788l.003-.305c.071-4.717.144-9.592-.602-14.254-.819-5.113-3.001-9.34-5.358-13.576-2.458-4.422-4.093-8.312-4.083-12.928.012-4.611.228-8.332.692-11.768l-5.237-.009c.992 8.883 2.604 19.615 2.858 21.289.22.515.651 1.699.708 3.123.061.132.106.273.132.422l1.258 7.251a4.417 4.417 0 0 0 2.15 3.074c4.927 2.839 6.922 8.495 5.473 15.516-1.265 6.145-3.658 9.043-7.999 9.688-.25.037-.5.056-.749.056zM69.017 31.539c.014.01.03.018.048.024.06.016.143.012.223-.026l.409-.203c1.337-.664 2.953-.349 4.113.805.009 0 .951.559 5.004-.248.73-.145 1.37-.333 1.919-.564.711-.3 1.21-.645 1.563-.995a2.96 2.96 0 0 0 .563-.772c.108-.218.184-.442.235-.669.042-.204.055-.378.064-.503.004-.052.01-.103.018-.154.043-1.225-.483-2.327-.49-2.343a1.785 1.785 0 0 1-.154-.488c-.02-.127-1.874-12.258-2.95-22.006H69.044v15.045c0 .226-.047.45-.137.659-1.092 2.551-3.198 9.73.056 12.4l.054.038zm-12.6 23.173a10.963 10.963 0 0 1-.88-1.053c-.293-.005-2.06-.044-4.309-.664a17.405 17.405 0 0 1-3.142-1.19 3.985 3.985 0 0 0-.33-.145 52.1 52.1 0 0 1 .706 1.863c.293.818.556 1.657.788 2.512a36.629 36.629 0 0 1 1.126 6.219l5.653-1.607a7.394 7.394 0 0 1 2.022-.282h2.088a.484.484 0 0 0 .485-.482v-2.009c-2.348-.725-3.799-2.582-4.206-3.162zm-2.279-7.894c.135-.54.329-1.057.574-1.543a4.207 4.207 0 0 0-4.184 3.947 15.64 15.64 0 0 0 3.475.933 8.036 8.036 0 0 1 .135-3.337zm7.011-2.011a1.72 1.72 0 0 1-.246-.298l-.486.125c-.6.155-1.146.433-1.608.805a1.666 1.666 0 0 1-.148.15 4.052 4.052 0 0 0-1.257 2.038c-.305 1.226-.15 2.36.476 3.466l.031.05c.27.466.618.92 1.035 1.35.073.076.14.159.198.246.028.042 1.344 1.965 3.244 2.056.053.002.106.007.158.015.745-.006 1.517-.288 2.34-.855A23.81 23.81 0 0 0 68.01 51.4zm20.362 9.93c.878 0 1.613.184 2.238.654 1.125.847 1.327 2.22 1.374 3.45.019.486.234.922.608 1.23.37.302.838.427 1.313.362 1.87-.28 3.969-1.077 5.2-7.047.668-3.243 1.055-9.106-3.863-11.941a7.763 7.763 0 0 1-3.782-5.405l-.488-2.826c-1.156.924-2.706 1.582-4.637 1.967-1.694.333-3.107.507-4.275.507-1.468 0-2.555-.268-3.334-.812a3.249 3.249 0 0 1-.439-.366.81.81 0 0 0-.154-.122.339.339 0 0 0-.108-.046l-.373.197a3.696 3.696 0 0 1-2.05.37c-.832 1.611-1.253 3.4-1.253 5.333a1.68 1.68 0 0 1-1.684 1.677c-.817.005-1.845.24-2.15.483.007.042.024.108.061.201l7.828 7.521c.038.037.074.075.108.114l.556.535c.328.315.516.752.516 1.208.006.568.255 2.25 1.306 3.065.785.607 1.993.72 3.595.335 1.542-.369 2.82-.645 3.887-.645zm-50.22 8.34c4.939-3.471 11.876-1.823 15.723-.363-.232-2.783-.82-5.538-1.724-8.058a56.176 56.176 0 0 0-1.018-2.487c-.387.648-.816 1.29-1.35 1.888a7.89 7.89 0 0 1-1.316 1.183c-1.647 1.168-3.532 2.167-6.108 3.237-.384.16-.918.324-1.514.503-.484.145-1.475.444-2.216.77-.153.407-.46.74-.855.927-.01.757-.002 1.9.27 2.247l-.003.002.001.001-.006.005.116.145zm-3.743-2.57a7.86 7.86 0 0 1-1.159.378c-1.695.405-5.534.652-10.374.936-1.742.102-3.245.19-4.058.27-.623.062-1.066.201-1.32.414-.566.476-.842 1.934-.459 2.437.073.095.33.332 1.154.466 2.383.394 7.83-.114 12.205-.522 1.788-.167 3.392-.315 4.664-.395a4.002 4.002 0 0 1-.05-.094c-.627-1.198-.623-2.659-.603-3.89zm73.37-4.533l-.004.305c-.04 2.703-.624 9.253-5.175 11.69-2.906 1.56-6.477 2.037-10.922 1.462-1.531-.198-3.016-.536-4.452-.865-1.367-.312-2.657-.607-3.974-.787-3.684-.503-7.684-.335-12.595.525-4.572.8-9.095 2.104-14.667 4.23-5.332 2.035-10.779 3.175-16.19 3.39a79.865 79.865 0 0 1-3.217.075c-2.82 0-5.82-.219-8.702-1.093-1.758-.532-3.683-.52-5.568.038-4.37 1.148-10.236.323-13.202-3.417C.918 69.848.144 67.715.068 65.522c-.077-2.23-.13-4.664.07-5.8.33-1.866 1.5-4.315 5.212-5.384 4.682-1.348 9.279-2.644 14.028-3.68 4.09-.89 7.626-2.868 11.37-4.96 1.04-.58 2.082-1.163 3.142-1.726 2.763-1.465 5.691-2.282 8.523-3.074 4.987-1.393 9.695-2.71 12.88-7.43.55-.816 1.04-1.78 1.499-2.95 1.355-3.468 2.24-6.555 2.143-10.355-.012-.494.001-2.942.02-5.91.022-3.493.054-8.885.03-11.239a2.962 2.962 0 0 1 .735-1.98 3.015 3.015 0 0 1 2.279-1.035l28.16.045c.495 0 .965.216 1.283.594.32.376.456.872.375 1.359-.636 3.803-.928 7.867-.94 13.174-.008 3.892 1.459 7.33 3.663 11.296 2.407 4.327 4.834 9.026 5.738 14.673.793 4.95.717 9.975.64 14.834z"/></g></g></svg>