<svg xmlns="http://www.w3.org/2000/svg" width="196" height="34" viewBox="0 0 196 34"><g><g><path fill="#f2b600" d="M26.217 21.443l2.907 12.553L18 27.37 6.876 33.998l2.908-12.554L0 12.984l12.922-1.13L18 .001l5.077 11.853L36 12.984zm40 0l2.907 12.553L58 27.37l-11.124 6.628 2.908-12.554L40 12.984l12.922-1.13L58 .001l5.078 11.853L76 12.984zm40 0l2.907 12.553L98 27.37l-11.124 6.628 2.908-12.554L80 12.984l12.922-1.13L98 .001l5.077 11.853L116 12.984zm40 0l2.907 12.553L138 27.37l-11.124 6.628 2.908-12.554-9.784-8.46 12.922-1.13L138 .001l5.078 11.853L156 12.984zm40 0l2.907 12.553L178 27.37l-11.124 6.628 2.908-12.554-9.784-8.46 12.922-1.13L178 .001l5.077 11.853L196 12.984z"/></g></g></svg>